# This file uses centimeters as units for non-parametric coordinates.

mtllib Book_Large.mtl
g default
v -1.046061 0.000991 0.918837
v 0.824942 0.000991 0.918837
v -1.046061 0.374987 0.918837
v 0.824942 0.374987 0.918837
v -1.046061 0.374987 -1.661697
v 0.824942 0.374987 -1.661697
v -1.046061 0.000991 -1.661697
v 0.824942 0.000991 -1.661697
vt 0.858241 0.982460
vt 0.782914 0.912877
vt 0.858241 0.912354
vt 0.782914 0.843150
vt 0.795201 0.773547
vt 0.795201 0.843150
vt 0.782914 0.982356
vt 0.809802 0.982460
vt 0.809802 0.912354
vt 0.917180 0.982460
vt 0.795201 0.982356
vt 0.795201 0.912877
vt 0.869720 0.912354
vt 0.869720 0.982460
vt 0.782914 0.773547
vt 0.917180 0.912354
vn 0.000000 0.000000 1.000000
vn 0.000000 0.000000 1.000000
vn 0.000000 0.000000 1.000000
vn 0.000000 0.000000 1.000000
vn 0.000000 1.000000 0.000000
vn 0.000000 1.000000 0.000000
vn 0.000000 1.000000 0.000000
vn 0.000000 1.000000 0.000000
vn 0.000000 0.000000 -1.000000
vn 0.000000 0.000000 -1.000000
vn 0.000000 0.000000 -1.000000
vn 0.000000 0.000000 -1.000000
vn 0.000000 -1.000000 0.000000
vn 0.000000 -1.000000 0.000000
vn 0.000000 -1.000000 0.000000
vn 0.000000 -1.000000 0.000000
vn 1.000000 0.000000 0.000000
vn 1.000000 0.000000 0.000000
vn 1.000000 0.000000 0.000000
vn 1.000000 0.000000 0.000000
vn -1.000000 0.000000 0.000000
vn -1.000000 0.000000 0.000000
vn -1.000000 0.000000 0.000000
vn -1.000000 0.000000 0.000000
s off
g Book_LARGE
usemtl initialShadingGroup
f 1/7/1 2/2/2 4/12/3 3/11/4
f 3/13/5 4/16/6 6/10/7 5/14/8
f 5/5/9 6/6/10 8/4/11 7/15/12
f 7/1/13 8/8/14 2/9/15 1/3/16
f 2/2/17 8/4/18 6/6/19 4/12/20
f 7/1/21 1/3/22 3/13/23 5/14/24
