# This file uses centimeters as units for non-parametric coordinates.

mtllib Candle_Holder_Largel_01.mtl
g default
v 0.404318 1.071990 -0.154879
v 0.079008 1.071990 -0.289626
v -0.246300 1.071990 -0.154879
v -0.381043 1.071990 0.170429
v -0.246300 1.071990 0.495744
v 0.079008 1.071990 0.630489
v 0.404318 1.071990 0.495744
v 0.539064 1.071990 0.170429
v 0.404318 6.132215 -0.154879
v 0.079008 6.132226 -0.289626
v -0.246300 6.132226 -0.154879
v -0.381043 6.132226 0.170429
v -0.246300 6.132226 0.495744
v 0.079008 6.132226 0.630489
v 0.404318 6.132215 0.495744
v 0.539064 6.132215 0.170429
v 0.683937 6.443203 -0.434500
v 0.079008 6.443214 -0.685069
v -0.525919 6.443214 -0.434500
v -0.776489 6.443214 0.170429
v -0.525919 6.443214 0.775373
v 0.079008 6.443214 1.025940
v 0.683937 6.443203 0.775373
v 0.934510 6.443203 0.170429
v 0.683937 6.640884 -0.434500
v 0.079008 6.640895 -0.685069
v 0.079008 6.640895 -0.502699
v 0.554984 6.640884 -0.305544
v -0.525919 6.640895 -0.434500
v -0.396964 6.640895 -0.305544
v -0.776489 6.640895 0.170429
v -0.594118 6.640895 0.170429
v -0.525919 6.640895 0.775373
v -0.396964 6.640895 0.646415
v 0.079008 6.640895 1.025940
v 0.079008 6.640895 0.843570
v 0.683937 6.640884 0.775373
v 0.554984 6.640884 0.646415
v 0.934510 6.640884 0.170429
v 0.752139 6.640884 0.170429
v 0.554984 6.479160 -0.305544
v 0.079008 6.479171 -0.502699
v -0.396964 6.479171 -0.305544
v -0.594118 6.479171 0.170429
v -0.396964 6.479171 0.646415
v 0.079008 6.479171 0.843570
v 0.554984 6.479160 0.646415
v 0.752139 6.479160 0.170429
v 0.338413 6.525230 -0.088975
v 0.079008 6.525230 -0.196416
v -0.180394 6.525230 -0.088975
v -0.287846 6.525230 0.170429
v -0.180394 6.525230 0.429842
v 0.079008 6.525230 0.537294
v 0.338413 6.525230 0.429842
v 0.445863 6.525219 0.170429
v 0.403258 6.828689 -0.153821
v 0.079008 6.828700 -0.288130
v -0.245240 6.828700 -0.153821
v -0.379549 6.828700 0.170429
v -0.245240 6.828700 0.494689
v 0.079008 6.828700 0.628995
v 0.403258 6.828689 0.494689
v 0.537570 6.828689 0.170429
v 0.297238 6.828700 -0.047798
v 0.079008 6.828700 -0.138192
v -0.139221 6.828700 -0.047798
v -0.229611 6.828700 0.170429
v -0.139221 6.828700 0.388665
v 0.079008 6.828700 0.479059
v 0.297238 6.828700 0.388665
v 0.387630 6.828700 0.170429
v 0.322122 6.512177 -0.072676
v 0.079008 6.512177 -0.173385
v 0.079008 6.512177 0.170429
v -0.164106 6.512177 -0.072676
v -0.264805 6.512177 0.170429
v -0.164106 6.512177 0.413553
v 0.079008 6.512177 0.514251
v 0.322122 6.512177 0.413553
v 0.422824 6.512165 0.170429
v 0.079008 0.806629 -0.974524
v 0.888614 0.806629 -0.639176
v -0.730594 0.806629 -0.639176
v -1.065941 0.806629 0.170429
v -0.730594 0.806629 0.980041
v 0.079008 0.806629 1.315389
v 0.888614 0.806629 0.980041
v 1.223963 0.806629 0.170429
v 0.716025 0.201105 -0.466587
v 0.079008 0.201105 -0.730448
v 0.079008 0.201105 -0.974524
v 0.888614 0.201105 -0.639176
v -0.558010 0.201105 -0.466587
v -0.730594 0.201105 -0.639176
v -0.821867 0.201105 0.170429
v -1.065941 0.201105 0.170429
v -0.558010 0.201105 0.807456
v -0.730594 0.201105 0.980041
v 0.079008 0.201105 1.071313
v 0.079008 0.201105 1.315389
v 0.716025 0.201105 0.807456
v 0.888614 0.201105 0.980041
v 0.979888 0.201105 0.170429
v 1.223963 0.201105 0.170429
v 0.079008 0.201105 0.170429
vt 0.511486 0.711450
vt 0.516311 0.699417
vt 0.520848 0.699401
vt 0.514750 0.714728
vt 0.511330 0.687618
vt 0.514483 0.684439
vt 0.499596 0.682820
vt 0.499604 0.678375
vt 0.742440 0.636785
vt 0.594405 0.636785
vt 0.759664 0.724520
vt 0.614068 0.724520
vt 0.594404 0.699494
vt 0.614068 0.945171
vt 0.742440 0.699494
vt 0.594404 0.945171
vt 0.720953 0.636785
vt 0.635186 0.724520
vt 0.720953 0.699494
vt 0.635186 0.945171
vt 0.699550 0.636785
vt 0.656528 0.724520
vt 0.699550 0.699494
vt 0.656528 0.945172
vt 0.678052 0.636786
vt 0.678053 0.699494
vt 0.656528 0.636785
vt 0.656528 0.699494
vt 0.635186 0.636785
vt 0.635186 0.699494
vt 0.614068 0.636785
vt 0.614068 0.699494
vt 0.594404 0.721008
vt 0.742440 0.721007
vt 0.593832 0.948989
vt 0.615960 0.948989
vt 0.615960 0.976742
vt 0.593832 0.976742
vt 0.637300 0.948989
vt 0.637300 0.976742
vt 0.659592 0.948989
vt 0.659592 0.976742
vt 0.589263 0.742836
vt 0.589262 0.779447
vt 0.571751 0.779447
vt 0.571751 0.742836
vt 0.589263 0.811780
vt 0.571750 0.811780
vt 0.589262 0.846190
vt 0.571751 0.846190
vt 0.487844 0.687699
vt 0.532954 0.839219
vt 0.681181 0.948989
vt 0.681181 0.976742
vt 0.700687 0.948990
vt 0.700687 0.976742
vt 0.718405 0.948990
vt 0.718405 0.976742
vt 0.739049 0.948989
vt 0.739049 0.976742
vt 0.543207 0.743996
vt 0.499582 0.762066
vt 0.499582 0.748915
vt 0.533907 0.734696
vt 0.455956 0.743996
vt 0.465256 0.734696
vt 0.437887 0.700371
vt 0.451038 0.700371
vt 0.589263 0.880370
vt 0.571751 0.880370
vt 0.589263 0.636959
vt 0.571751 0.636959
vt 0.589263 0.673476
vt 0.571751 0.673476
vt 0.589263 0.711825
vt 0.571750 0.711825
vt 0.589262 0.740031
vt 0.589263 0.768112
vt 0.571750 0.768112
vt 0.571751 0.740030
vt 0.589262 0.800864
vt 0.571751 0.800864
vt 0.589263 0.834896
vt 0.571751 0.834896
vt 0.545743 0.852082
vt 0.510815 0.866549
vt 0.510815 0.855093
vt 0.537643 0.843981
vt 0.475886 0.852082
vt 0.483988 0.843981
vt 0.461420 0.817153
vt 0.472875 0.817153
vt 0.475886 0.782224
vt 0.483988 0.790325
vt 0.510815 0.767757
vt 0.510815 0.779212
vt 0.545743 0.782225
vt 0.537643 0.790325
vt 0.560211 0.817153
vt 0.548755 0.817153
vt 0.510889 0.848359
vt 0.510888 0.817153
vt 0.488823 0.839219
vt 0.479682 0.817153
vt 0.488823 0.795087
vt 0.510889 0.785948
vt 0.532954 0.795087
vt 0.542094 0.817153
vt 0.720953 0.721008
vt 0.699550 0.721008
vt 0.678052 0.721008
vt 0.656528 0.721007
vt 0.635186 0.721008
vt 0.614068 0.721008
vt 0.484703 0.684542
vt 0.482822 0.699535
vt 0.478285 0.699551
vt 0.487607 0.711534
vt 0.484331 0.714836
vt 0.499537 0.716529
vt 0.499530 0.721219
vt 0.499567 0.699476
vt 0.742440 0.945171
vt 0.742440 0.724520
vt 0.720953 0.945171
vt 0.678053 0.724520
vt 0.678053 0.945171
vt 0.699550 0.724520
vt 0.699550 0.945171
vt 0.720953 0.724520
vt 0.615960 0.982661
vt 0.593832 0.982661
vt 0.637300 0.982661
vt 0.659592 0.982661
vt 0.681181 0.982661
vt 0.700687 0.982661
vt 0.718404 0.982661
vt 0.739050 0.982661
vt 0.455956 0.656746
vt 0.465256 0.666045
vt 0.499581 0.638676
vt 0.499582 0.651828
vt 0.543207 0.656746
vt 0.533907 0.666045
vt 0.561277 0.700371
vt 0.548125 0.700371
vt 0.531688 0.732015
vt 0.499547 0.745328
vt 0.499547 0.724647
vt 0.517064 0.717391
vt 0.467408 0.732015
vt 0.482031 0.717391
vt 0.454095 0.699875
vt 0.474775 0.699875
vt 0.467408 0.667735
vt 0.482031 0.682359
vt 0.499547 0.654422
vt 0.499547 0.675103
vt 0.531688 0.667735
vt 0.517064 0.682359
vt 0.545001 0.699875
vt 0.524320 0.699875
vt 0.589263 0.868216
vt 0.571751 0.868216
vt 0.589263 0.636574
vt 0.571751 0.636573
vt 0.589263 0.677604
vt 0.571751 0.677603
vt 0.589263 0.710354
vt 0.571751 0.710354
vt 0.588944 0.935793
vt 0.588944 0.945226
vt 0.577364 0.945226
vt 0.577363 0.935793
vt 0.588944 0.955750
vt 0.577364 0.955751
vt 0.588944 0.964358
vt 0.577364 0.964359
vt 0.588944 0.972341
vt 0.577364 0.972342
vt 0.588944 0.909847
vt 0.577364 0.909847
vt 0.588944 0.919775
vt 0.577364 0.919776
vt 0.588944 0.927773
vt 0.577363 0.927773
vt 0.511486 0.711450
vt 0.759664 0.721008
vt 0.514750 0.714728
vt 0.759664 0.699494
vt 0.594404 0.724520
vt 0.759664 0.636785
vt 0.532954 0.839219
vt 0.571751 0.904153
vt 0.537643 0.843981
vt 0.589263 0.904153
vt 0.761022 0.976742
vt 0.545743 0.852082
vt 0.517064 0.717391
vt 0.761022 0.982661
vt 0.761022 0.948990
vt 0.531688 0.732015
vt 0.533907 0.734696
vt 0.759665 0.945171
vt 0.543207 0.743996
vt 0.589263 0.904202
vt 0.571751 0.904202
vt 0.588944 0.982653
vt 0.577364 0.982653
vn 0.000000 -1.000000 -0.000000
vn 0.000000 -1.000000 -0.000000
vn 0.000000 -1.000000 -0.000001
vn 0.000000 -1.000000 -0.000001
vn 0.000000 -1.000000 0.000000
vn 0.000000 -1.000000 0.000000
vn 0.000000 -1.000000 0.000000
vn 0.000000 -1.000000 0.000000
vn 0.000000 -1.000000 -0.000000
vn 0.000000 -1.000000 -0.000000
vn 0.000000 -1.000000 0.000000
vn 0.000000 -1.000000 0.000001
vn 0.000000 -1.000000 0.000000
vn 0.000000 -1.000000 0.000001
vn 0.000000 -1.000000 -0.000000
vn 0.000000 -1.000000 -0.000000
vn 0.382680 0.000000 -0.923881
vn 0.382680 0.000000 -0.923881
vn 0.382680 0.000000 -0.923881
vn 0.382680 0.000000 -0.923881
vn -0.382683 0.000000 -0.923880
vn -0.382683 0.000000 -0.923880
vn -0.382683 0.000000 -0.923880
vn -0.382683 0.000000 -0.923880
vn -0.923883 0.000000 -0.382675
vn -0.923883 0.000000 -0.382675
vn -0.923883 0.000000 -0.382675
vn -0.923883 0.000000 -0.382675
vn -0.923886 0.000000 0.382668
vn -0.923886 0.000000 0.382668
vn -0.923886 0.000000 0.382668
vn -0.923886 0.000000 0.382668
vn -0.382681 0.000000 0.923881
vn -0.382681 0.000000 0.923881
vn -0.382681 0.000000 0.923881
vn -0.382681 0.000000 0.923881
vn 0.382677 0.000000 0.923882
vn 0.382677 0.000000 0.923882
vn 0.382677 0.000000 0.923882
vn 0.382677 0.000000 0.923882
vn 0.923884 0.000000 0.382673
vn 0.923884 0.000000 0.382673
vn 0.923884 0.000000 0.382673
vn 0.923884 0.000000 0.382673
vn 0.923881 0.000000 -0.382680
vn 0.923881 0.000000 -0.382680
vn 0.923881 0.000000 -0.382680
vn 0.923881 0.000000 -0.382680
vn 0.000008 1.000000 0.000004
vn 0.000008 1.000000 0.000004
vn 0.000008 1.000000 0.000004
vn 0.000008 1.000000 0.000004
vn 0.000000 1.000000 -0.000000
vn 0.000000 1.000000 -0.000000
vn 0.000000 1.000000 0.000000
vn 0.000000 1.000000 -0.000000
vn 0.000000 1.000000 0.000000
vn 0.000000 1.000000 0.000000
vn 0.000008 1.000000 -0.000004
vn 0.000008 1.000000 -0.000004
vn 0.000008 1.000000 -0.000004
vn 0.000008 1.000000 -0.000004
vn 0.000000 1.000000 0.000000
vn 0.000000 1.000000 0.000000
vn 0.000000 -1.000000 0.000000
vn 0.000016 1.000000 0.000016
vn 0.000000 1.000000 0.000000
vn 0.000008 1.000000 0.000000
vn 0.000000 1.000000 0.000000
vn 0.000000 1.000000 0.000000
vn 0.000000 1.000000 0.000000
vn 0.000000 1.000000 0.000000
vn 0.000016 1.000000 -0.000016
vn 0.000032 1.000000 -0.000000
vn 0.248035 -0.761479 -0.598856
vn 0.248035 -0.761479 -0.598856
vn 0.248035 -0.761479 -0.598856
vn 0.248035 -0.761479 -0.598856
vn -0.248051 -0.761479 -0.598849
vn -0.248051 -0.761479 -0.598849
vn -0.248051 -0.761479 -0.598849
vn -0.248051 -0.761479 -0.598849
vn -0.598849 -0.761480 -0.248049
vn -0.598849 -0.761480 -0.248049
vn -0.598849 -0.761480 -0.248049
vn -0.598849 -0.761480 -0.248049
vn -0.598850 -0.761481 0.248044
vn -0.598850 -0.761481 0.248044
vn -0.598850 -0.761481 0.248044
vn -0.598850 -0.761481 0.248044
vn -0.248047 -0.761486 0.598842
vn -0.248047 -0.761486 0.598842
vn -0.248047 -0.761486 0.598843
vn -0.248047 -0.761486 0.598842
vn 0.248030 -0.761485 0.598850
vn 0.248030 -0.761485 0.598850
vn 0.248030 -0.761485 0.598850
vn 0.248030 -0.761485 0.598850
vn 0.598849 -0.761481 0.248047
vn 0.598849 -0.761481 0.248047
vn 0.598849 -0.761481 0.248047
vn 0.598849 -0.761481 0.248047
vn 0.598848 -0.761480 -0.248052
vn 0.598848 -0.761480 -0.248052
vn 0.598848 -0.761480 -0.248052
vn 0.598848 -0.761479 -0.248052
vn 0.382682 0.000000 -0.923880
vn 0.382682 0.000000 -0.923880
vn 0.382682 0.000000 -0.923880
vn 0.382682 0.000000 -0.923880
vn -0.382684 0.000000 -0.923879
vn -0.382684 0.000000 -0.923879
vn -0.382684 0.000000 -0.923879
vn -0.382684 0.000000 -0.923879
vn -0.923880 0.000000 -0.382683
vn -0.923880 0.000000 -0.382683
vn -0.923880 0.000000 -0.382683
vn -0.923880 0.000000 -0.382683
vn -0.923883 0.000000 0.382675
vn -0.923883 0.000000 0.382675
vn -0.923883 0.000000 0.382675
vn -0.923883 0.000000 0.382675
vn -0.382681 0.000000 0.923880
vn -0.382681 0.000000 0.923880
vn -0.382681 0.000000 0.923880
vn -0.382681 0.000000 0.923880
vn 0.382680 0.000000 0.923881
vn 0.382680 0.000000 0.923881
vn 0.382680 0.000000 0.923881
vn 0.382680 0.000000 0.923881
vn 0.923881 0.000000 0.382680
vn 0.923881 0.000000 0.382680
vn 0.923881 0.000000 0.382680
vn 0.923881 0.000000 0.382680
vn 0.923878 0.000000 -0.382688
vn 0.923878 0.000000 -0.382688
vn 0.923878 0.000000 -0.382688
vn 0.923878 0.000000 -0.382688
vn -0.382682 0.000000 0.923880
vn -0.382682 0.000000 0.923880
vn -0.382682 0.000000 0.923880
vn -0.382682 0.000000 0.923880
vn 0.382685 0.000000 0.923879
vn 0.382685 0.000000 0.923879
vn 0.382685 0.000000 0.923879
vn 0.382685 0.000000 0.923879
vn 0.923880 0.000000 0.382683
vn 0.923880 0.000000 0.382683
vn 0.923880 0.000000 0.382683
vn 0.923880 0.000000 0.382683
vn 0.923883 0.000000 -0.382674
vn 0.923883 0.000000 -0.382674
vn 0.923883 0.000000 -0.382674
vn 0.923883 0.000000 -0.382674
vn 0.382685 0.000000 -0.923879
vn 0.382685 0.000000 -0.923879
vn 0.382685 0.000000 -0.923879
vn 0.382685 0.000000 -0.923879
vn -0.382682 0.000000 -0.923880
vn -0.382682 0.000000 -0.923880
vn -0.382682 0.000000 -0.923880
vn -0.382682 0.000000 -0.923880
vn -0.923883 0.000000 -0.382675
vn -0.923883 0.000000 -0.382675
vn -0.923883 0.000000 -0.382675
vn -0.923883 0.000000 -0.382675
vn -0.923879 0.000000 0.382684
vn -0.923879 0.000000 0.382684
vn -0.923879 0.000000 0.382684
vn -0.923879 0.000000 0.382684
vn 0.061499 0.987007 -0.148443
vn 0.061499 0.987007 -0.148443
vn 0.061499 0.987007 -0.148443
vn 0.061499 0.987007 -0.148443
vn -0.061481 0.987010 -0.148431
vn -0.061481 0.987010 -0.148431
vn -0.061481 0.987010 -0.148431
vn -0.061481 0.987010 -0.148431
vn -0.148433 0.987009 -0.061483
vn -0.148433 0.987009 -0.061483
vn -0.148433 0.987009 -0.061483
vn -0.148433 0.987009 -0.061483
vn -0.148433 0.987009 0.061481
vn -0.148433 0.987009 0.061481
vn -0.148433 0.987010 0.061481
vn -0.148433 0.987010 0.061481
vn -0.061483 0.987010 0.148431
vn -0.061483 0.987010 0.148431
vn -0.061483 0.987010 0.148431
vn -0.061483 0.987010 0.148431
vn 0.061501 0.987007 0.148443
vn 0.061501 0.987007 0.148443
vn 0.061501 0.987007 0.148443
vn 0.061501 0.987007 0.148443
vn 0.148453 0.987007 0.061475
vn 0.148453 0.987007 0.061475
vn 0.148453 0.987007 0.061475
vn 0.148453 0.987007 0.061475
vn 0.148453 0.987007 -0.061477
vn 0.148453 0.987007 -0.061477
vn 0.148453 0.987007 -0.061477
vn 0.148453 0.987007 -0.061477
vn 0.368572 -0.268921 -0.889852
vn 0.368572 -0.268921 -0.889852
vn 0.368572 -0.268921 -0.889852
vn 0.368572 -0.268921 -0.889852
vn -0.368580 -0.268917 -0.889850
vn -0.368580 -0.268917 -0.889850
vn -0.368580 -0.268917 -0.889850
vn -0.368580 -0.268917 -0.889850
vn -0.889848 -0.268903 -0.368593
vn -0.889848 -0.268903 -0.368593
vn -0.889848 -0.268903 -0.368593
vn -0.889848 -0.268903 -0.368593
vn -0.889853 -0.268904 0.368583
vn -0.889853 -0.268904 0.368583
vn -0.889853 -0.268904 0.368582
vn -0.889853 -0.268904 0.368583
vn -0.368591 -0.268901 0.889850
vn -0.368591 -0.268901 0.889850
vn -0.368591 -0.268901 0.889850
vn -0.368591 -0.268901 0.889850
vn 0.368583 -0.268905 0.889852
vn 0.368583 -0.268905 0.889852
vn 0.368583 -0.268905 0.889852
vn 0.368583 -0.268905 0.889852
vn 0.889849 -0.268911 0.368587
vn 0.889849 -0.268911 0.368587
vn 0.889848 -0.268911 0.368587
vn 0.889848 -0.268911 0.368587
vn 0.889844 -0.268910 -0.368598
vn 0.889844 -0.268910 -0.368598
vn 0.889844 -0.268910 -0.368598
vn 0.889844 -0.268910 -0.368598
vn 0.000033 1.000000 -0.000030
vn 0.000033 1.000000 -0.000030
vn 0.000033 1.000000 -0.000030
vn 0.000033 1.000000 -0.000030
vn 0.000000 1.000000 0.000000
vn 0.000000 1.000000 0.000000
vn 0.000000 1.000000 0.000000
vn 0.000000 1.000000 0.000000
vn 0.000000 1.000000 0.000000
vn 0.000000 1.000000 0.000000
vn 0.000000 1.000000 0.000000
vn 0.000000 1.000000 0.000000
vn 0.000000 1.000000 -0.000001
vn 0.000000 1.000000 -0.000001
vn 0.000000 1.000000 -0.000001
vn 0.000000 1.000000 -0.000001
vn 0.000000 1.000000 0.000000
vn 0.000000 1.000000 0.000000
vn 0.000000 1.000000 0.000000
vn 0.000000 1.000000 0.000000
vn 0.000033 1.000000 0.000030
vn 0.000033 1.000000 0.000030
vn 0.000033 1.000000 0.000030
vn 0.000033 1.000000 0.000030
vn 0.000074 1.000000 0.000030
vn 0.000074 1.000000 0.000030
vn 0.000074 1.000000 0.000030
vn 0.000074 1.000000 0.000030
vn 0.000074 1.000000 -0.000030
vn 0.000074 1.000000 -0.000030
vn 0.000074 1.000000 -0.000030
vn 0.000074 1.000000 -0.000030
vn -0.380696 -0.102173 0.919038
vn -0.380696 -0.102173 0.919038
vn -0.380696 -0.102173 0.919038
vn -0.380696 -0.102173 0.919038
vn 0.380697 -0.102174 0.919038
vn 0.380697 -0.102174 0.919038
vn 0.380697 -0.102174 0.919038
vn 0.380697 -0.102174 0.919038
vn 0.919044 -0.102181 0.380679
vn 0.919044 -0.102181 0.380679
vn 0.919044 -0.102181 0.380679
vn 0.919044 -0.102181 0.380679
vn 0.919052 -0.102188 -0.380658
vn 0.919052 -0.102188 -0.380658
vn 0.919052 -0.102188 -0.380658
vn 0.919052 -0.102188 -0.380658
vn 0.380675 -0.102187 -0.919045
vn 0.380675 -0.102187 -0.919045
vn 0.380675 -0.102187 -0.919045
vn 0.380675 -0.102187 -0.919045
vn -0.380674 -0.102186 -0.919046
vn -0.380674 -0.102186 -0.919046
vn -0.380674 -0.102186 -0.919046
vn -0.380674 -0.102186 -0.919046
vn -0.919050 -0.102183 -0.380664
vn -0.919050 -0.102183 -0.380664
vn -0.919050 -0.102183 -0.380664
vn -0.919050 -0.102183 -0.380664
vn -0.919042 -0.102177 0.380686
vn -0.919042 -0.102177 0.380686
vn -0.919042 -0.102177 0.380686
vn -0.919042 -0.102177 0.380686
vn 0.147997 0.922190 -0.357299
vn 0.147997 0.922190 -0.357298
vn 0.147997 0.922190 -0.357298
vn 0.147997 0.922190 -0.357298
vn -0.147998 0.922190 -0.357299
vn -0.147998 0.922190 -0.357299
vn -0.147998 0.922190 -0.357299
vn -0.147998 0.922190 -0.357299
vn -0.357299 0.922190 -0.147996
vn -0.357299 0.922190 -0.147996
vn -0.357299 0.922190 -0.147996
vn -0.357299 0.922190 -0.147996
vn -0.357300 0.922190 0.147995
vn -0.357300 0.922190 0.147995
vn -0.357300 0.922190 0.147995
vn -0.357300 0.922190 0.147995
vn -0.147997 0.922190 0.357298
vn -0.147997 0.922190 0.357298
vn -0.147997 0.922190 0.357298
vn -0.147997 0.922190 0.357298
vn 0.147996 0.922190 0.357298
vn 0.147996 0.922190 0.357298
vn 0.147996 0.922190 0.357298
vn 0.147996 0.922190 0.357298
vn 0.357299 0.922190 0.147995
vn 0.357299 0.922190 0.147995
vn 0.357299 0.922190 0.147995
vn 0.357299 0.922190 0.147995
vn 0.357299 0.922190 -0.147997
vn 0.357298 0.922190 -0.147997
vn 0.357299 0.922190 -0.147997
vn 0.357299 0.922190 -0.147997
vn 0.382682 0.000000 -0.923880
vn 0.382682 0.000000 -0.923880
vn 0.382682 0.000000 -0.923880
vn 0.382682 0.000000 -0.923880
vn -0.382683 0.000000 -0.923880
vn -0.382683 0.000000 -0.923880
vn -0.382683 0.000000 -0.923880
vn -0.382683 0.000000 -0.923880
vn -0.923881 0.000000 -0.382681
vn -0.923881 0.000000 -0.382681
vn -0.923881 0.000000 -0.382681
vn -0.923881 0.000000 -0.382681
vn -0.923882 0.000000 0.382678
vn -0.923882 0.000000 0.382678
vn -0.923882 0.000000 0.382678
vn -0.923882 0.000000 0.382678
vn -0.382683 0.000000 0.923880
vn -0.382683 0.000000 0.923880
vn -0.382683 0.000000 0.923880
vn -0.382683 0.000000 0.923880
vn 0.382682 0.000000 0.923880
vn 0.382682 0.000000 0.923880
vn 0.382682 0.000000 0.923880
vn 0.382682 0.000000 0.923880
vn 0.923881 0.000000 0.382680
vn 0.923881 0.000000 0.382680
vn 0.923881 0.000000 0.382680
vn 0.923881 0.000000 0.382680
vn 0.923880 0.000000 -0.382683
vn 0.923880 0.000000 -0.382683
vn 0.923880 0.000000 -0.382683
vn 0.923880 0.000000 -0.382683
s 1
g Candle_Holder_LARGE_01
usemtl initialShadingGroup
f 90/187/1 91/2/2 92/3/3 93/4/4
f 91/2/2 94/5/5 95/6/6 92/3/3
f 94/5/5 96/7/7 97/8/8 95/6/6
f 96/7/7 98/51/9 99/115/10 97/8/8
f 98/51/9 100/116/11 101/117/12 99/115/10
f 100/116/11 102/118/13 103/119/14 101/117/12
f 102/118/13 104/120/15 105/121/16 103/119/14
f 104/120/15 90/1/1 93/189/4 105/121/16
s off
f 1/191/17 2/12/18 10/14/19 9/16/20
f 2/12/21 3/18/22 11/20/23 10/14/24
f 3/18/25 4/22/26 12/24/27 11/20/28
f 4/22/29 5/126/30 13/127/31 12/24/32
f 5/126/33 6/128/34 14/129/35 13/127/36
f 6/128/37 7/130/38 15/125/39 14/129/40
f 7/130/41 8/124/42 16/123/43 15/125/44
f 8/124/45 1/11/46 9/204/47 16/123/48
s 2
f 25/205/49 26/62/50 27/63/51 28/64/52
f 26/62/50 29/65/53 30/66/54 27/63/51
f 29/65/53 31/67/55 32/68/56 30/66/54
f 31/67/55 33/139/57 34/140/58 32/68/56
f 33/139/57 35/141/59 36/142/60 34/140/58
f 35/141/59 37/143/61 38/144/62 36/142/60
f 37/143/61 39/145/63 40/146/64 38/144/62
f 39/145/63 25/61/49 28/203/52 40/146/64
s 1
f 91/2/2 90/187/1 106/122/65
f 94/5/5 91/2/2 106/122/65
f 96/7/7 94/5/5 106/122/65
f 98/51/9 96/7/7 106/122/65
f 100/116/11 98/51/9 106/122/65
f 102/118/13 100/116/11 106/122/65
f 104/120/15 102/118/13 106/122/65
f 90/1/1 104/120/15 106/122/65
s 3
f 73/193/66 74/101/67 75/102/68
f 74/101/67 76/103/69 75/102/68
f 76/103/69 77/104/70 75/102/68
f 77/104/70 78/105/71 75/102/68
f 78/105/71 79/106/72 75/102/68
f 79/106/72 80/107/73 75/102/68
f 80/107/73 81/108/74 75/102/68
f 81/108/74 73/52/66 75/102/68
s off
f 9/35/75 10/36/76 18/37/77 17/38/78
f 10/36/79 11/39/80 19/40/81 18/37/82
f 11/39/83 12/41/84 20/42/85 19/40/86
f 12/41/87 13/53/88 21/54/89 20/42/90
f 13/53/91 14/55/92 22/56/93 21/54/94
f 14/55/95 15/57/96 23/58/97 22/56/98
f 15/57/99 16/59/100 24/60/101 23/58/102
f 16/59/103 9/201/104 17/197/105 24/60/106
f 17/38/107 18/37/108 26/131/109 25/132/110
f 18/37/111 19/40/112 29/133/113 26/131/114
f 19/40/115 20/42/116 31/134/117 29/133/118
f 20/42/119 21/54/120 33/135/121 31/134/122
f 21/54/123 22/56/124 35/136/125 33/135/126
f 22/56/127 23/58/128 37/137/129 35/136/130
f 23/58/131 24/60/132 39/138/133 37/137/134
f 24/60/135 17/197/136 25/200/137 39/138/138
f 28/43/139 27/44/140 42/45/141 41/46/142
f 27/44/143 30/47/144 43/48/145 42/45/146
f 30/47/147 32/49/148 44/50/149 43/48/150
f 32/49/151 34/69/152 45/70/153 44/50/154
f 34/69/155 36/196/156 46/194/157 45/70/158
f 36/71/159 38/73/160 47/74/161 46/72/162
f 38/73/163 40/75/164 48/76/165 47/74/166
f 40/75/167 28/43/168 41/46/169 48/76/170
f 41/147/171 42/148/172 50/149/173 49/150/174
f 42/148/175 43/151/176 51/152/177 50/149/178
f 43/151/179 44/153/180 52/154/181 51/152/182
f 44/153/183 45/155/184 53/156/185 52/154/186
f 45/155/187 46/157/188 54/158/189 53/156/190
f 46/157/191 47/159/192 55/160/193 54/158/194
f 47/159/195 48/161/196 56/162/197 55/160/198
f 48/161/199 41/202/200 49/199/201 56/162/202
f 49/77/203 50/78/204 58/79/205 57/80/206
f 50/78/207 51/81/208 59/82/209 58/79/210
f 51/81/211 52/83/212 60/84/213 59/82/214
f 52/83/215 53/163/216 61/164/217 60/84/218
f 53/163/219 54/206/220 62/207/221 61/164/222
f 54/165/223 55/167/224 63/168/225 62/166/226
f 55/167/227 56/169/228 64/170/229 63/168/230
f 56/169/231 49/77/232 57/80/233 64/170/234
f 57/85/235 58/86/236 66/87/237 65/88/238
f 58/86/239 59/89/240 67/90/241 66/87/242
f 59/89/243 60/91/244 68/92/245 67/90/246
f 60/91/247 61/93/248 69/94/249 68/92/250
f 61/93/251 62/95/252 70/96/253 69/94/254
f 62/95/255 63/97/256 71/98/257 70/96/258
f 63/97/259 64/99/260 72/100/261 71/98/262
f 64/99/263 57/198/264 65/195/265 72/100/266
f 65/171/267 66/172/268 74/173/269 73/174/270
f 66/172/271 67/175/272 76/176/273 74/173/274
f 67/175/275 68/177/276 77/178/277 76/176/278
f 68/177/279 69/179/280 78/180/281 77/178/282
f 69/179/283 70/208/284 79/209/285 78/180/286
f 70/181/287 71/183/288 80/184/289 79/182/290
f 71/183/291 72/185/292 81/186/293 80/184/294
f 72/185/295 65/171/296 73/174/297 81/186/298
f 2/9/299 1/192/300 83/190/301 82/15/302
f 3/17/303 2/9/304 82/15/305 84/19/306
f 4/21/307 3/17/308 84/19/309 85/23/310
f 5/25/311 4/21/312 85/23/313 86/26/314
f 6/27/315 5/25/316 86/26/317 87/28/318
f 7/29/319 6/27/320 87/28/321 88/30/322
f 8/31/323 7/29/324 88/30/325 89/32/326
f 1/10/327 8/31/328 89/32/329 83/13/330
f 82/15/331 83/190/332 93/188/333 92/34/334
f 84/19/335 82/15/336 92/34/337 95/109/338
f 85/23/339 84/19/340 95/109/341 97/110/342
f 86/26/343 85/23/344 97/110/345 99/111/346
f 87/28/347 86/26/348 99/111/349 101/112/350
f 88/30/351 87/28/352 101/112/353 103/113/354
f 89/32/355 88/30/356 103/113/357 105/114/358
f 83/13/359 89/32/360 105/114/361 93/33/362
