# This file uses centimeters as units for non-parametric coordinates.

mtllib Table_Small.mtl
g default
v 0.023140 4.315171 -0.165778
v -0.035785 4.315171 -0.224702
v -0.116279 4.315171 -0.246271
v -0.196773 4.315171 -0.224702
v -0.255698 4.315171 -0.165778
v -0.277266 4.315171 -0.085284
v -0.255698 4.315171 -0.004790
v -0.196773 4.315171 0.054135
v -0.116279 4.315171 0.075703
v -0.035785 4.315171 0.054135
v 0.023140 4.315171 -0.004790
v 0.044708 4.315171 -0.085284
v 0.749747 4.315171 -0.585284
v 0.383721 4.315171 -0.951310
v -0.116279 4.315171 -1.085284
v -0.616279 4.315171 -0.951310
v -0.982304 4.315171 -0.585284
v -1.116279 4.315171 -0.085284
v -0.982304 4.315171 0.414716
v -0.616279 4.315171 0.780742
v -0.116279 4.315171 0.914716
v 0.383721 4.315171 0.780742
v 0.749747 4.315171 0.414716
v 0.883721 4.315171 -0.085280
v 0.749747 4.456796 -0.585284
v 0.383721 4.456796 -0.951310
v -0.116279 4.456796 -1.085284
v -0.616279 4.456796 -0.951310
v -0.982304 4.456796 -0.585284
v -1.116279 4.456796 -0.085284
v -0.982304 4.456796 0.414716
v -0.616279 4.456796 0.780742
v -0.116279 4.456796 0.914716
v 0.383721 4.456796 0.780742
v 0.749747 4.456796 0.414716
v 0.883721 4.456796 -0.085280
v 0.316734 4.456796 -0.335284
v 0.133721 4.456796 -0.518297
v -0.116279 4.456796 -0.585284
v -0.366279 4.456796 -0.518297
v -0.549292 4.456796 -0.335284
v -0.616279 4.456796 -0.085284
v -0.549292 4.456796 0.164716
v -0.366279 4.456796 0.347729
v -0.116279 4.456796 0.414716
v 0.133721 4.456796 0.347729
v 0.316734 4.456796 0.164716
v 0.383721 4.456796 -0.085284
v -0.116279 4.456796 -0.085284
v 0.023140 1.469248 -0.165778
v -0.035785 1.469248 -0.224702
v -0.116279 1.469248 -0.246271
v -0.196773 1.469248 -0.224702
v -0.255698 1.469248 -0.165778
v -0.277266 1.469248 -0.085284
v -0.255698 1.469248 -0.004790
v -0.196773 1.469248 0.054135
v -0.116279 1.469248 0.075703
v -0.035785 1.469248 0.054135
v 0.023140 1.469248 -0.004790
v 0.044708 1.469248 -0.085284
v 0.215843 1.249402 -0.277034
v 0.075472 1.249402 -0.417405
v -0.116279 1.249402 -0.468785
v -0.308030 1.249402 -0.417405
v -0.448400 1.249402 -0.277034
v -0.499781 1.249402 -0.085284
v -0.448400 1.249402 0.106467
v -0.308030 1.249402 0.246838
v -0.116279 1.249402 0.298217
v 0.075472 1.249402 0.246838
v 0.215843 1.249402 0.106467
v 0.267223 1.249402 -0.085284
v 0.133882 -0.000034 -0.229714
v 0.028151 -0.000034 -0.335444
v -0.116279 -0.000034 -0.085284
v -0.116279 -0.000034 -0.374144
v -0.260709 -0.000034 -0.335444
v -0.366439 -0.000034 -0.229714
v -0.405140 -0.000034 -0.085284
v -0.366439 -0.000034 0.059147
v -0.260709 -0.000034 0.164877
v -0.116279 -0.000034 0.203577
v 0.028151 -0.000034 0.164877
v 0.133882 -0.000034 0.059147
v 0.172582 -0.000034 -0.085284
v 0.215843 -0.000034 -0.277034
v 0.075472 -0.000034 -0.417405
v -0.116279 -0.000034 -0.468785
v -0.308030 -0.000034 -0.417405
v -0.448400 -0.000034 -0.277034
v -0.499781 -0.000034 -0.085284
v -0.448400 -0.000034 0.106467
v -0.308030 -0.000034 0.246838
v -0.116279 -0.000034 0.298217
v 0.075472 -0.000034 0.246838
v 0.215843 -0.000034 0.106467
v 0.267223 -0.000034 -0.085284
vt 0.119693 0.690477
vt 0.118635 0.689391
vt 0.126400 0.676302
vt 0.132971 0.683021
vt 0.117130 0.688980
vt 0.117130 0.673764
vt 0.115710 0.689353
vt 0.108280 0.676072
vt 0.114625 0.690412
vt 0.101543 0.682618
vt 0.114214 0.691955
vt 0.098963 0.691955
vt 0.114586 0.693345
vt 0.101252 0.700833
vt 0.115644 0.694433
vt 0.107820 0.707622
vt 0.117130 0.694845
vt 0.117130 0.710199
vt 0.118572 0.694471
vt 0.126061 0.707859
vt 0.119657 0.693410
vt 0.132802 0.701241
vt 0.120067 0.691955
vt 0.135323 0.691955
vt 0.140850 0.834549
vt 0.140850 0.816705
vt 0.140850 0.798416
vt 0.140850 0.780632
vt 0.140850 0.762847
vt 0.140850 0.745330
vt 0.140842 0.727543
vt 0.140850 0.745387
vt 0.140850 0.762904
vt 0.140850 0.780689
vt 0.140850 0.798473
vt 0.140850 0.816761
vt 0.140850 0.834606
vt 0.146444 0.834549
vt 0.146444 0.816704
vt 0.146443 0.798416
vt 0.146444 0.780632
vt 0.146444 0.762847
vt 0.146444 0.745330
vt 0.146446 0.727543
vt 0.146444 0.745387
vt 0.146444 0.762904
vt 0.146444 0.780689
vt 0.146444 0.798473
vt 0.146444 0.816761
vt 0.146444 0.834606
vt 0.224432 0.863885
vt 0.210129 0.849582
vt 0.190591 0.844347
vt 0.171052 0.849582
vt 0.156749 0.863885
vt 0.151514 0.883424
vt 0.156749 0.902962
vt 0.171052 0.917265
vt 0.190591 0.922500
vt 0.210129 0.917265
vt 0.224432 0.902962
vt 0.229667 0.883424
vt 0.207512 0.873654
vt 0.200360 0.866503
vt 0.190590 0.863885
vt 0.180822 0.866503
vt 0.173670 0.873654
vt 0.171052 0.883424
vt 0.173670 0.893193
vt 0.180822 0.900344
vt 0.190591 0.902962
vt 0.200360 0.900344
vt 0.207512 0.893193
vt 0.210129 0.883424
vt 0.117245 0.678640
vt 0.190591 0.883292
vt 0.164418 0.834564
vt 0.161266 0.834564
vt 0.161266 0.689124
vt 0.164418 0.689124
vt 0.167837 0.834564
vt 0.167837 0.689124
vt 0.170901 0.834564
vt 0.170901 0.689124
vt 0.173926 0.834564
vt 0.173926 0.689124
vt 0.177009 0.834564
vt 0.177009 0.689124
vt 0.124055 0.680554
vt 0.117130 0.691955
vt 0.110982 0.680234
vt 0.106052 0.684924
vt 0.104089 0.692373
vt 0.105649 0.698182
vt 0.110341 0.703202
vt 0.117245 0.705165
vt 0.123572 0.703530
vt 0.128507 0.698748
vt 0.130392 0.692373
vt 0.128752 0.685482
vt 0.180161 0.834564
vt 0.180161 0.689124
vt 0.183344 0.834564
vt 0.183344 0.689124
vt 0.186529 0.834564
vt 0.186529 0.689124
vt 0.151785 0.834564
vt 0.151785 0.689124
vt 0.154958 0.834564
vt 0.154959 0.689124
vt 0.158104 0.834564
vt 0.158104 0.689124
vt 0.126271 0.676894
vt 0.132508 0.683417
vt 0.117245 0.674364
vt 0.108948 0.676471
vt 0.102404 0.682678
vt 0.099782 0.692373
vt 0.101834 0.700279
vt 0.108064 0.706963
vt 0.117245 0.709581
vt 0.125664 0.707400
vt 0.132216 0.701031
vt 0.134703 0.692373
vt 0.158217 0.673489
vt 0.163181 0.673489
vt 0.168147 0.673489
vt 0.173119 0.673489
vt 0.178082 0.673489
vt 0.183129 0.673489
vt 0.188147 0.673489
vt 0.193270 0.673489
vt 0.198287 0.673489
vt 0.143026 0.673489
vt 0.148159 0.673489
vt 0.153169 0.673489
vt 0.158218 0.633155
vt 0.163180 0.633155
vt 0.168147 0.633155
vt 0.173119 0.633155
vt 0.178082 0.633155
vt 0.183129 0.633155
vt 0.188148 0.633155
vt 0.193270 0.633155
vt 0.198287 0.633155
vt 0.143026 0.633155
vt 0.148159 0.633155
vt 0.153169 0.633155
vt 0.137809 0.673489
vt 0.137809 0.633155
vt 0.148597 0.689124
vt 0.148597 0.834564
vt 0.140842 0.727486
vt 0.146446 0.727486
vn 0.000000 -1.000000 0.000000
vn 0.000000 -1.000000 0.000000
vn 0.000000 -1.000000 0.000000
vn 0.000000 -1.000000 0.000000
vn 0.000000 -1.000000 0.000000
vn 0.000000 -1.000000 0.000000
vn 0.000000 -1.000000 -0.000000
vn 0.000000 -1.000000 -0.000000
vn 0.000000 -1.000000 0.000000
vn 0.000000 -1.000000 0.000000
vn 0.000000 -1.000000 0.000000
vn 0.000000 -1.000000 0.000000
vn 0.000000 -1.000000 -0.000000
vn 0.000000 -1.000000 -0.000000
vn 0.000000 -1.000000 0.000000
vn 0.000000 -1.000000 0.000000
vn 0.000000 -1.000000 0.000000
vn 0.000000 -1.000000 0.000000
vn 0.000000 -1.000000 0.000000
vn 0.000000 -1.000000 0.000000
vn 0.000000 -1.000000 -0.000000
vn 0.000000 -1.000000 -0.000000
vn 0.000000 -1.000000 0.000000
vn 0.000000 -1.000000 -0.000000
vn 0.707107 0.000000 -0.707106
vn 0.707107 0.000000 -0.707106
vn 0.707107 0.000000 -0.707106
vn 0.707107 0.000000 -0.707106
vn 0.258818 0.000000 -0.965926
vn 0.258818 0.000000 -0.965926
vn 0.258818 0.000000 -0.965926
vn 0.258818 0.000000 -0.965926
vn -0.258818 0.000000 -0.965926
vn -0.258818 0.000000 -0.965926
vn -0.258818 0.000000 -0.965926
vn -0.258818 0.000000 -0.965926
vn -0.707107 0.000000 -0.707106
vn -0.707107 0.000000 -0.707106
vn -0.707107 0.000000 -0.707106
vn -0.707107 0.000000 -0.707106
vn -0.965926 0.000000 -0.258819
vn -0.965926 0.000000 -0.258819
vn -0.965926 0.000000 -0.258819
vn -0.965926 0.000000 -0.258819
vn -0.965926 0.000000 0.258819
vn -0.965926 0.000000 0.258819
vn -0.965926 0.000000 0.258819
vn -0.965926 0.000000 0.258819
vn -0.707107 0.000000 0.707106
vn -0.707107 0.000000 0.707106
vn -0.707107 0.000000 0.707106
vn -0.707107 0.000000 0.707106
vn -0.258818 0.000000 0.965926
vn -0.258818 0.000000 0.965926
vn -0.258818 0.000000 0.965926
vn -0.258818 0.000000 0.965926
vn 0.258818 0.000000 0.965926
vn 0.258818 0.000000 0.965926
vn 0.258818 0.000000 0.965926
vn 0.258818 0.000000 0.965926
vn 0.707107 0.000000 0.707106
vn 0.707107 0.000000 0.707106
vn 0.707107 0.000000 0.707106
vn 0.707107 0.000000 0.707106
vn 0.965925 0.000000 0.258821
vn 0.965925 0.000000 0.258821
vn 0.965925 0.000000 0.258821
vn 0.965925 0.000000 0.258821
vn 0.965926 0.000000 -0.258817
vn 0.965926 0.000000 -0.258817
vn 0.965926 0.000000 -0.258817
vn 0.965926 0.000000 -0.258817
vn 0.000000 1.000000 -0.000000
vn 0.000000 1.000000 -0.000000
vn 0.000000 1.000000 -0.000000
vn 0.000000 1.000000 -0.000000
vn 0.000000 1.000000 0.000000
vn 0.000000 1.000000 0.000000
vn 0.000000 1.000000 0.000000
vn 0.000000 1.000000 -0.000000
vn 0.000000 1.000000 0.000000
vn 0.000000 1.000000 -0.000000
vn 0.000000 1.000000 0.000000
vn 0.000000 1.000000 -0.000000
vn 0.000000 1.000000 0.000000
vn 0.000000 1.000000 0.000000
vn 0.000000 1.000000 0.000000
vn 0.000000 1.000000 0.000000
vn 0.000000 1.000000 0.000000
vn 0.000000 1.000000 0.000000
vn 0.000000 1.000000 0.000000
vn 0.000000 1.000000 0.000000
vn 0.000000 1.000000 -0.000000
vn 0.000000 1.000000 -0.000000
vn 0.000000 1.000000 -0.000000
vn 0.000000 1.000000 -0.000000
vn 0.000000 -1.000000 0.000000
vn 0.000000 -1.000000 0.000001
vn 0.000000 -1.000000 0.000000
vn 0.000000 -1.000000 0.000001
vn 0.000000 -1.000000 0.000002
vn 0.000000 -1.000000 0.000001
vn 0.000000 -1.000000 -0.000001
vn 0.000000 -1.000000 -0.000000
vn 0.000000 -1.000000 0.000000
vn 0.000000 -1.000000 -0.000001
vn 0.000000 -1.000000 -0.000001
vn 0.000000 -1.000000 0.000000
vn 0.000000 -1.000000 0.000002
vn 0.000000 1.000000 -0.000000
vn 0.707104 0.000000 -0.707110
vn 0.707104 0.000000 -0.707110
vn 0.707104 0.000000 -0.707110
vn 0.707104 0.000000 -0.707110
vn 0.258821 0.000000 -0.965925
vn 0.258821 0.000000 -0.965925
vn 0.258821 0.000000 -0.965925
vn 0.258821 0.000000 -0.965925
vn -0.258820 0.000000 -0.965926
vn -0.258820 0.000000 -0.965926
vn -0.258820 0.000000 -0.965926
vn -0.258820 0.000000 -0.965926
vn -0.707104 0.000000 -0.707110
vn -0.707104 0.000000 -0.707110
vn -0.707104 0.000000 -0.707110
vn -0.707104 0.000000 -0.707110
vn -0.965926 0.000000 -0.258819
vn -0.965926 0.000000 -0.258819
vn -0.965926 0.000000 -0.258819
vn -0.965926 0.000000 -0.258819
vn -0.965926 0.000000 0.258819
vn -0.965926 0.000000 0.258819
vn -0.965926 0.000000 0.258819
vn -0.965926 0.000000 0.258819
vn -0.707104 0.000000 0.707110
vn -0.707104 0.000000 0.707110
vn -0.707104 0.000000 0.707110
vn -0.707104 0.000000 0.707110
vn -0.258820 0.000000 0.965926
vn -0.258820 0.000000 0.965926
vn -0.258820 0.000000 0.965926
vn -0.258820 0.000000 0.965926
vn 0.258821 0.000000 0.965925
vn 0.258821 0.000000 0.965925
vn 0.258821 0.000000 0.965925
vn 0.258821 0.000000 0.965925
vn 0.707104 0.000000 0.707110
vn 0.707104 0.000000 0.707110
vn 0.707104 0.000000 0.707110
vn 0.707104 0.000000 0.707110
vn 0.965926 0.000000 0.258819
vn 0.965926 0.000000 0.258819
vn 0.965926 0.000000 0.258819
vn 0.965926 0.000000 0.258819
vn 0.965926 0.000000 -0.258819
vn 0.965926 0.000000 -0.258819
vn 0.965926 0.000000 -0.258819
vn 0.965926 0.000000 -0.258819
vn 0.000000 -1.000000 -0.000001
vn 0.000000 -1.000000 -0.000001
vn 0.000000 -1.000000 -0.000001
vn 0.000000 -1.000000 -0.000001
vn 0.000000 -1.000000 0.000000
vn 0.000000 -1.000000 0.000000
vn 0.000000 -1.000000 0.000000
vn 0.000000 -1.000000 0.000000
vn 0.000000 -1.000000 -0.000003
vn 0.000000 -1.000000 -0.000003
vn 0.000000 -1.000000 -0.000003
vn 0.000000 -1.000000 -0.000003
vn 0.000000 -1.000000 0.000002
vn 0.000000 -1.000000 0.000002
vn 0.000000 -1.000000 0.000002
vn 0.000000 -1.000000 0.000002
vn 0.000000 -1.000000 -0.000002
vn 0.000000 -1.000000 -0.000002
vn 0.000000 -1.000000 -0.000002
vn 0.000000 -1.000000 -0.000002
vn 0.000000 -1.000000 0.000000
vn 0.000000 -1.000000 0.000000
vn 0.000000 -1.000000 0.000000
vn 0.000000 -1.000000 0.000000
vn 0.000000 -1.000000 -0.000001
vn 0.000000 -1.000000 -0.000001
vn 0.000000 -1.000000 -0.000001
vn 0.000000 -1.000000 -0.000001
vn 0.000000 -1.000000 0.000004
vn 0.000000 -1.000000 0.000004
vn 0.000000 -1.000000 0.000004
vn 0.000000 -1.000000 0.000004
vn 0.000000 -1.000000 -0.000001
vn 0.000000 -1.000000 -0.000001
vn 0.000000 -1.000000 -0.000001
vn 0.000000 -1.000000 -0.000001
vn 0.000000 -1.000000 0.000000
vn 0.000000 -1.000000 0.000000
vn 0.000000 -1.000000 0.000000
vn 0.000000 -1.000000 0.000000
vn 0.000000 -1.000000 0.000002
vn 0.000000 -1.000000 0.000002
vn 0.000000 -1.000000 0.000002
vn 0.000000 -1.000000 0.000002
vn 0.000000 -1.000000 0.000000
vn 0.000000 -1.000000 0.000000
vn 0.000000 -1.000000 0.000000
vn 0.000000 -1.000000 0.000000
vn 0.505617 0.699072 -0.505618
vn 0.505617 0.699072 -0.505618
vn 0.505617 0.699072 -0.505618
vn 0.505617 0.699072 -0.505618
vn 0.185069 0.699072 -0.690686
vn 0.185069 0.699072 -0.690686
vn 0.185069 0.699072 -0.690686
vn 0.185069 0.699072 -0.690686
vn -0.185069 0.699072 -0.690687
vn -0.185069 0.699072 -0.690687
vn -0.185069 0.699072 -0.690687
vn -0.185069 0.699072 -0.690687
vn -0.505618 0.699071 -0.505618
vn -0.505618 0.699071 -0.505618
vn -0.505618 0.699071 -0.505618
vn -0.505618 0.699071 -0.505618
vn -0.690686 0.699072 -0.185070
vn -0.690686 0.699072 -0.185070
vn -0.690686 0.699072 -0.185070
vn -0.690686 0.699072 -0.185070
vn -0.690686 0.699072 0.185072
vn -0.690686 0.699072 0.185072
vn -0.690686 0.699072 0.185072
vn -0.690686 0.699072 0.185072
vn -0.505618 0.699071 0.505618
vn -0.505618 0.699071 0.505618
vn -0.505618 0.699071 0.505618
vn -0.505618 0.699071 0.505618
vn -0.185068 0.699072 0.690687
vn -0.185068 0.699072 0.690687
vn -0.185068 0.699072 0.690687
vn -0.185068 0.699072 0.690687
vn 0.185069 0.699072 0.690686
vn 0.185069 0.699072 0.690686
vn 0.185069 0.699072 0.690686
vn 0.185069 0.699072 0.690686
vn 0.505617 0.699072 0.505618
vn 0.505617 0.699072 0.505618
vn 0.505617 0.699072 0.505618
vn 0.505617 0.699072 0.505618
vn 0.690686 0.699072 0.185070
vn 0.690686 0.699072 0.185070
vn 0.690686 0.699072 0.185070
vn 0.690686 0.699072 0.185070
vn 0.690686 0.699072 -0.185071
vn 0.690686 0.699072 -0.185071
vn 0.690686 0.699072 -0.185071
vn 0.690686 0.699072 -0.185071
vn 0.707108 0.000000 -0.707106
vn 0.707108 0.000000 -0.707106
vn 0.707108 0.000000 -0.707106
vn 0.707108 0.000000 -0.707106
vn 0.258818 0.000000 -0.965926
vn 0.258818 0.000000 -0.965926
vn 0.258818 0.000000 -0.965926
vn 0.258818 0.000000 -0.965926
vn -0.258818 0.000000 -0.965926
vn -0.258818 0.000000 -0.965926
vn -0.258818 0.000000 -0.965926
vn -0.258818 0.000000 -0.965926
vn -0.707108 0.000000 -0.707106
vn -0.707108 0.000000 -0.707106
vn -0.707108 0.000000 -0.707106
vn -0.707108 0.000000 -0.707106
vn -0.965925 0.000000 -0.258823
vn -0.965925 0.000000 -0.258823
vn -0.965925 0.000000 -0.258823
vn -0.965925 0.000000 -0.258823
vn -0.965925 0.000000 0.258823
vn -0.965925 0.000000 0.258823
vn -0.965925 0.000000 0.258823
vn -0.965925 0.000000 0.258823
vn -0.707108 0.000000 0.707106
vn -0.707108 0.000000 0.707106
vn -0.707108 0.000000 0.707106
vn -0.707108 0.000000 0.707106
vn -0.258818 0.000000 0.965926
vn -0.258818 0.000000 0.965926
vn -0.258818 0.000000 0.965926
vn -0.258818 0.000000 0.965926
vn 0.258818 0.000000 0.965926
vn 0.258818 0.000000 0.965926
vn 0.258818 0.000000 0.965926
vn 0.258818 0.000000 0.965926
vn 0.707108 0.000000 0.707106
vn 0.707108 0.000000 0.707106
vn 0.707108 0.000000 0.707106
vn 0.707108 0.000000 0.707106
vn 0.965925 0.000000 0.258821
vn 0.965925 0.000000 0.258821
vn 0.965925 0.000000 0.258821
vn 0.965925 0.000000 0.258821
vn 0.965925 0.000000 -0.258821
vn 0.965925 0.000000 -0.258821
vn 0.965925 0.000000 -0.258821
vn 0.965925 0.000000 -0.258821
s 1
g Table_SMALL
usemtl initialShadingGroup
f 1/1/1 2/2/2 14/3/3 13/4/4
f 2/2/2 3/5/5 15/6/6 14/3/3
f 3/5/5 4/7/7 16/8/8 15/6/6
f 4/7/7 5/9/9 17/10/10 16/8/8
f 5/9/9 6/11/11 18/12/12 17/10/10
f 6/11/11 7/13/13 19/14/14 18/12/12
f 7/13/13 8/15/15 20/16/16 19/14/14
f 8/15/15 9/17/17 21/18/18 20/16/16
f 9/17/17 10/19/19 22/20/20 21/18/18
f 10/19/19 11/21/21 23/22/22 22/20/20
f 11/21/21 12/23/23 24/24/24 23/22/22
f 12/23/23 1/1/1 13/4/4 24/24/24
s off
f 13/25/25 14/26/26 26/39/27 25/38/28
f 14/26/29 15/27/30 27/40/31 26/39/32
f 15/27/33 16/28/34 28/41/35 27/40/36
f 16/28/37 17/29/38 29/42/39 28/41/40
f 17/29/41 18/30/42 30/43/43 29/42/44
f 18/30/45 19/153/46 31/154/47 30/43/48
f 19/31/49 20/32/50 32/45/51 31/44/52
f 20/32/53 21/33/54 33/46/55 32/45/56
f 21/33/57 22/34/58 34/47/59 33/46/60
f 22/34/61 23/35/62 35/48/63 34/47/64
f 23/35/65 24/36/66 36/49/67 35/48/68
f 24/36/69 13/37/70 25/50/71 36/49/72
s 2
f 25/61/73 26/60/74 38/72/75 37/73/76
f 26/60/74 27/59/77 39/71/78 38/72/75
f 27/59/77 28/58/79 40/70/80 39/71/78
f 28/58/79 29/57/81 41/69/82 40/70/80
f 29/57/81 30/56/83 42/68/84 41/69/82
f 30/56/83 31/55/85 43/67/86 42/68/84
f 31/55/85 32/54/87 44/66/88 43/67/86
f 32/54/87 33/53/89 45/65/90 44/66/88
f 33/53/89 34/52/91 46/64/92 45/65/90
f 34/52/91 35/51/93 47/63/94 46/64/92
f 35/51/93 36/62/95 48/74/96 47/63/94
f 36/62/95 25/61/73 37/73/76 48/74/96
s 3
f 77/75/97 75/89/98 76/90/99 78/91/100
f 79/92/101 78/91/100 76/90/99 80/93/102
f 81/94/103 80/93/102 76/90/99 82/95/104
f 83/96/105 82/95/104 76/90/99 84/97/106
f 85/98/107 84/97/106 76/90/99 86/99/108
f 74/100/109 86/99/108 76/90/99 75/89/98
s 2
f 49/76/110 38/72/75 39/71/78 40/70/80
f 49/76/110 40/70/80 41/69/82 42/68/84
f 49/76/110 42/68/84 43/67/86 44/66/88
f 49/76/110 44/66/88 45/65/90 46/64/92
f 49/76/110 46/64/92 47/63/94 48/74/96
f 49/76/110 48/74/96 37/73/76 38/72/75
s off
f 2/77/111 1/78/112 50/79/113 51/80/114
f 3/81/115 2/77/116 51/80/117 52/82/118
f 4/83/119 3/81/120 52/82/121 53/84/122
f 5/85/123 4/83/124 53/84/125 54/86/126
f 6/87/127 5/85/128 54/86/129 55/88/130
f 7/101/131 6/87/132 55/88/133 56/102/134
f 8/103/135 7/101/136 56/102/137 57/104/138
f 9/105/139 8/103/140 57/104/141 58/106/142
f 10/107/143 9/152/144 58/151/145 59/108/146
f 11/109/147 10/107/148 59/108/149 60/110/150
f 12/111/151 11/109/152 60/110/153 61/112/154
f 1/78/155 12/111/156 61/112/157 50/79/158
f 88/113/159 87/114/160 74/100/161 75/89/162
f 89/115/163 88/113/164 75/89/165 77/75/166
f 90/116/167 89/115/168 77/75/169 78/91/170
f 91/117/171 90/116/172 78/91/173 79/92/174
f 92/118/175 91/117/176 79/92/177 80/93/178
f 93/119/179 92/118/180 80/93/181 81/94/182
f 94/120/183 93/119/184 81/94/185 82/95/186
f 95/121/187 94/120/188 82/95/189 83/96/190
f 96/122/191 95/121/192 83/96/193 84/97/194
f 97/123/195 96/122/196 84/97/197 85/98/198
f 98/124/199 97/123/200 85/98/201 86/99/202
f 87/114/203 98/124/204 86/99/205 74/100/206
f 51/80/207 50/79/208 62/125/209 63/126/210
f 52/82/211 51/80/212 63/126/213 64/127/214
f 53/84/215 52/82/216 64/127/217 65/128/218
f 54/86/219 53/84/220 65/128/221 66/129/222
f 55/88/223 54/86/224 66/129/225 67/130/226
f 56/102/227 55/88/228 67/130/229 68/131/230
f 57/104/231 56/102/232 68/131/233 69/132/234
f 58/106/235 57/104/236 69/132/237 70/133/238
f 59/108/239 58/151/240 70/149/241 71/134/242
f 60/110/243 59/108/244 71/134/245 72/135/246
f 61/112/247 60/110/248 72/135/249 73/136/250
f 50/79/251 61/112/252 73/136/253 62/125/254
f 63/126/255 62/125/256 87/137/257 88/138/258
f 64/127/259 63/126/260 88/138/261 89/139/262
f 65/128/263 64/127/264 89/139/265 90/140/266
f 66/129/267 65/128/268 90/140/269 91/141/270
f 67/130/271 66/129/272 91/141/273 92/142/274
f 68/131/275 67/130/276 92/142/277 93/143/278
f 69/132/279 68/131/280 93/143/281 94/144/282
f 70/133/283 69/132/284 94/144/285 95/145/286
f 71/134/287 70/149/288 95/150/289 96/146/290
f 72/135/291 71/134/292 96/146/293 97/147/294
f 73/136/295 72/135/296 97/147/297 98/148/298
f 62/125/299 73/136/300 98/148/301 87/137/302
