# This file uses centimeters as units for non-parametric coordinates.

mtllib Door_R.mtl
g default
v -398.173798 -2.568174 900.805786
v -399.998962 0.000011 0.811238
v 0.000000 0.000000 0.000000
v 0.811249 -1.141408 399.997559
v -16.925751 -1.570875 550.532043
v -51.856232 -1.997482 700.103821
v -98.377228 -2.282834 800.197937
v -198.256317 -2.452652 859.912476
v -298.196411 -2.536667 889.558594
v -17.496155 -1.141413 400.034668
v -53.150543 -1.141412 400.106995
v -99.188354 -1.141411 400.200348
v -199.269501 -1.141408 400.403320
v -299.130585 -1.141399 400.605865
v -399.187744 -1.141397 400.808777
v -52.845306 -1.570874 550.604919
v -98.883118 -1.570873 550.698303
v -198.980377 -1.570870 550.901306
v -298.814026 -1.570867 551.103760
v -398.882507 -1.570858 551.306702
v -98.579926 -1.997480 700.198608
v -198.693329 -1.997478 700.401611
v -298.499420 -1.997475 700.604065
v -398.579315 -1.997466 700.807007
v -198.506836 -2.282831 800.401001
v -298.285034 -2.282828 800.603333
v -398.376495 -2.282820 800.806335
v -298.158600 -2.452649 860.115112
v -398.255798 -2.452640 860.318115
v -398.196075 -2.536658 889.761414
v -399.998810 25.656816 0.884450
v 0.000153 25.656805 0.073213
v 0.811371 24.515398 400.070770
v -17.496002 24.515392 400.107880
v -53.150391 24.515392 400.180206
v -99.188202 24.515394 400.273560
v -199.269348 24.515398 400.476532
v -299.130432 24.515406 400.679077
v -399.187592 24.515409 400.881989
v -16.925598 24.085930 550.605286
v -52.845154 24.085932 550.678101
v -98.882965 24.085932 550.771484
v -198.980225 24.085936 550.974487
v -298.813873 24.085938 551.176941
v -398.882355 24.085947 551.379944
v -51.856079 23.659325 700.177063
v -98.579773 23.659325 700.271790
v -198.693176 23.659328 700.474854
v -298.499268 23.659330 700.677246
v -398.579163 23.659340 700.880249
v -98.377075 23.373972 800.271118
v -198.506714 23.373974 800.474182
v -298.284912 23.373978 800.676575
v -398.376343 23.373985 800.879578
v -198.256195 23.204155 859.985718
v -298.158447 23.204157 860.188293
v -398.255646 23.204166 860.391357
v -298.196259 23.120138 889.631836
v -398.195923 23.120148 889.834656
v -398.173645 23.088631 900.878967
vt 0.652869 0.008232
vt 0.652869 0.255628
vt 0.716599 0.255628
vt 0.780204 0.255628
vt 0.843949 0.255628
vt 0.873273 0.255628
vt 0.895982 0.255628
vt 0.907643 0.255628
vt 0.907643 0.008232
vt 0.896151 0.350995
vt 0.873273 0.350995
vt 0.843949 0.350995
vt 0.780194 0.350995
vt 0.716606 0.350995
vt 0.652869 0.350995
vt 0.873709 0.449292
vt 0.843949 0.449292
vt 0.780183 0.449292
vt 0.716613 0.449292
vt 0.652869 0.449292
vt 0.843949 0.512300
vt 0.780173 0.512300
vt 0.716621 0.512300
vt 0.652869 0.512300
vt 0.780256 0.549798
vt 0.716624 0.549798
vt 0.652869 0.549798
vt 0.716562 0.568350
vt 0.652869 0.568350
vt 0.652869 0.575309
vt 0.652869 0.008232
vt 0.907643 0.008232
vt 0.907643 0.255628
vt 0.895982 0.255628
vt 0.873273 0.255628
vt 0.843949 0.255628
vt 0.780204 0.255628
vt 0.716599 0.255628
vt 0.652869 0.255628
vt 0.896151 0.350995
vt 0.873273 0.350995
vt 0.843949 0.350995
vt 0.780194 0.350995
vt 0.716606 0.350995
vt 0.652869 0.350995
vt 0.873709 0.449292
vt 0.843949 0.449292
vt 0.780183 0.449292
vt 0.716613 0.449292
vt 0.652869 0.449292
vt 0.843949 0.512300
vt 0.780173 0.512300
vt 0.716621 0.512300
vt 0.652869 0.512300
vt 0.780256 0.549798
vt 0.716624 0.549798
vt 0.652869 0.549798
vt 0.716562 0.568350
vt 0.652869 0.568350
vt 0.652869 0.575309
vt 0.564908 0.185066
vt 0.564908 0.222680
vt 0.350971 0.222680
vt 0.350971 0.185065
vt 0.324589 0.028040
vt 0.560845 0.028040
vt 0.589574 0.575132
vt 0.589574 0.192639
vt 0.628930 0.192639
vt 0.628930 0.575132
vt 0.589574 0.162028
vt 0.628930 0.162028
vt 0.589574 0.134347
vt 0.628930 0.134347
vt 0.589574 0.071378
vt 0.628930 0.071378
vt 0.589574 0.033904
vt 0.628930 0.033904
vt 0.589574 0.015363
vt 0.628930 0.015363
vt 0.589574 0.008409
vt 0.628930 0.008409
vt 0.560845 0.065655
vt 0.324589 0.065655
vt 0.233481 0.028040
vt 0.233481 0.065655
vt 0.139573 0.028040
vt 0.139573 0.065654
vt 0.079391 0.028040
vt 0.079391 0.065655
vt 0.043576 0.028040
vt 0.043576 0.065655
vt 0.025857 0.028040
vt 0.025857 0.065655
vt 0.019210 0.028040
vt 0.019210 0.065655
vn 0.000006 0.999996 0.002854
vn 0.000006 0.999996 0.002854
vn 0.000006 0.999996 0.002854
vn 0.000006 0.999996 0.002854
vn 0.000006 0.999996 0.002854
vn 0.000006 0.999996 0.002854
vn 0.000006 0.999996 0.002854
vn 0.000006 0.999996 0.002854
vn 0.000006 0.999996 0.002854
vn 0.000006 0.999996 0.002854
vn 0.000006 0.999996 0.002854
vn 0.000006 0.999996 0.002854
vn 0.000006 0.999996 0.002854
vn 0.000006 0.999996 0.002854
vn 0.000006 0.999996 0.002854
vn 0.000006 0.999996 0.002854
vn 0.000006 0.999996 0.002854
vn 0.000006 0.999996 0.002854
vn 0.000006 0.999996 0.002854
vn 0.000006 0.999996 0.002854
vn 0.000006 0.999996 0.002854
vn 0.000006 0.999996 0.002854
vn 0.000006 0.999996 0.002854
vn 0.000006 0.999996 0.002854
vn 0.000006 0.999996 0.002854
vn 0.000006 0.999996 0.002854
vn 0.000006 0.999996 0.002854
vn 0.000006 0.999996 0.002854
vn 0.000006 0.999996 0.002854
vn 0.000006 0.999996 0.002854
vn -0.000006 -0.999996 -0.002854
vn -0.000006 -0.999996 -0.002854
vn -0.000006 -0.999996 -0.002854
vn -0.000006 -0.999996 -0.002854
vn -0.000006 -0.999996 -0.002854
vn -0.000006 -0.999996 -0.002854
vn -0.000006 -0.999996 -0.002854
vn -0.000006 -0.999996 -0.002854
vn -0.000006 -0.999996 -0.002854
vn -0.000006 -0.999996 -0.002854
vn -0.000006 -0.999996 -0.002854
vn -0.000006 -0.999996 -0.002854
vn -0.000006 -0.999996 -0.002854
vn -0.000006 -0.999996 -0.002854
vn -0.000006 -0.999996 -0.002854
vn -0.000006 -0.999996 -0.002854
vn -0.000006 -0.999996 -0.002854
vn -0.000006 -0.999996 -0.002854
vn -0.000006 -0.999996 -0.002854
vn -0.000006 -0.999996 -0.002854
vn -0.000006 -0.999996 -0.002854
vn -0.000006 -0.999996 -0.002854
vn -0.000006 -0.999996 -0.002854
vn -0.000006 -0.999996 -0.002854
vn -0.000006 -0.999996 -0.002854
vn -0.000006 -0.999996 -0.002854
vn -0.000006 -0.999996 -0.002854
vn -0.000006 -0.999996 -0.002854
vn -0.000006 -0.999996 -0.002854
vn -0.000006 -0.999996 -0.002854
vn -0.002028 0.002854 -0.999994
vn -0.002028 0.002854 -0.999994
vn -0.002028 0.002854 -0.999994
vn -0.002028 0.002854 -0.999994
vn 0.999528 -0.000093 0.030730
vn 0.999998 0.000000 -0.002028
vn 0.999998 0.000000 -0.002028
vn 0.999528 -0.000093 0.030730
vn -0.999998 -0.000000 0.002028
vn -0.999998 -0.000000 0.002028
vn -0.999998 -0.000000 0.002028
vn -0.999998 -0.000000 0.002028
vn 0.984948 -0.000499 0.172853
vn 0.984948 -0.000499 0.172853
vn -0.999998 -0.000001 0.002028
vn -0.999998 -0.000001 0.002028
vn -0.999998 -0.000001 0.002028
vn -0.999998 -0.000001 0.002028
vn 0.950687 -0.000891 0.310151
vn 0.950687 -0.000891 0.310151
vn -0.999998 -0.000001 0.002028
vn -0.999998 -0.000001 0.002028
vn -0.999998 -0.000001 0.002028
vn -0.999998 -0.000001 0.002028
vn 0.737365 -0.001932 0.675492
vn 0.737365 -0.001932 0.675491
vn -0.999998 0.000001 0.002028
vn -0.999998 0.000001 0.002028
vn -0.999998 0.000001 0.002028
vn -0.999998 0.000001 0.002028
vn 0.408245 -0.002608 0.912869
vn 0.408245 -0.002608 0.912869
vn -0.999998 0.000002 0.002028
vn -0.999998 0.000002 0.002028
vn -0.999998 0.000002 0.002028
vn -0.999998 0.000002 0.002028
vn 0.200402 -0.002797 0.979710
vn 0.200402 -0.002797 0.979710
vn -0.999998 0.000002 0.002028
vn -0.999998 0.000002 0.002028
vn -0.999998 0.000002 0.002028
vn -0.999998 0.000002 0.002028
vn 0.111792 -0.002836 0.993728
vn 0.111792 -0.002836 0.993728
vn -0.999998 -0.000001 0.002017
vn -0.999998 -0.000001 0.002017
vn -0.999998 -0.000001 0.002017
vn -0.999998 -0.000001 0.002017
s 1
g Door_R
usemtl blinn1SG
f 31/1/1 39/2/2 38/3/3 37/4/4 36/5/5 35/6/6 34/7/7 33/8/8 32/9/9
f 40/10/10 33/8/8 34/7/7
f 40/10/10 34/7/7 35/6/6 41/11/11
f 41/11/11 35/6/6 36/5/5 42/12/12
f 42/12/12 36/5/5 37/4/4 43/13/13
f 43/13/13 37/4/4 38/3/3 44/14/14
f 39/2/2 45/15/15 44/14/14 38/3/3
f 46/16/16 40/10/10 41/11/11
f 46/16/16 41/11/11 42/12/12 47/17/17
f 47/17/17 42/12/12 43/13/13 48/18/18
f 48/18/18 43/13/13 44/14/14 49/19/19
f 45/15/15 50/20/20 49/19/19 44/14/14
f 51/21/21 46/16/16 47/17/17
f 51/21/21 47/17/17 48/18/18 52/22/22
f 52/22/22 48/18/18 49/19/19 53/23/23
f 50/20/20 54/24/24 53/23/23 49/19/19
f 55/25/25 51/21/21 52/22/22
f 55/25/25 52/22/22 53/23/23 56/26/26
f 54/24/24 57/27/27 56/26/26 53/23/23
f 58/28/28 55/25/25 56/26/26
f 57/27/27 59/29/29 58/28/28 56/26/26
f 59/29/29 60/30/30 58/28/28
s 2
f 2/31/31 3/32/32 4/33/33 10/34/34 11/35/35 12/36/36 13/37/37 14/38/38 15/39/39
f 5/40/40 10/34/34 4/33/33
f 5/40/40 16/41/41 11/35/35 10/34/34
f 16/41/41 17/42/42 12/36/36 11/35/35
f 17/42/42 18/43/43 13/37/37 12/36/36
f 18/43/43 19/44/44 14/38/38 13/37/37
f 15/39/39 14/38/38 19/44/44 20/45/45
f 6/46/46 16/41/41 5/40/40
f 6/46/46 21/47/47 17/42/42 16/41/41
f 21/47/47 22/48/48 18/43/43 17/42/42
f 22/48/48 23/49/49 19/44/44 18/43/43
f 20/45/45 19/44/44 23/49/49 24/50/50
f 7/51/51 21/47/47 6/46/46
f 7/51/51 25/52/52 22/48/48 21/47/47
f 25/52/52 26/53/53 23/49/49 22/48/48
f 24/50/50 23/49/49 26/53/53 27/54/54
f 8/55/55 25/52/52 7/51/51
f 8/55/55 28/56/56 26/53/53 25/52/52
f 27/54/54 26/53/53 28/56/56 29/57/57
f 9/58/58 28/56/56 8/55/55
f 29/57/57 28/56/56 9/58/58 30/59/59
f 30/59/59 9/58/58 1/60/60
s off
f 32/61/61 3/62/62 2/63/63 31/64/64
s 3
f 4/65/65 3/66/66 32/83/67 33/84/68
s off
f 2/67/69 15/68/70 39/69/71 31/70/72
s 3
f 5/85/73 4/65/65 33/84/68 40/86/74
s off
f 15/68/75 20/71/76 45/72/77 39/69/78
s 3
f 6/87/79 5/85/73 40/86/74 46/88/80
s off
f 20/71/81 24/73/82 50/74/83 45/72/84
s 3
f 7/89/85 6/87/79 46/88/80 51/90/86
s off
f 24/73/87 27/75/88 54/76/89 50/74/90
s 3
f 8/91/91 7/89/85 51/90/86 55/92/92
s off
f 27/75/93 29/77/94 57/78/95 54/76/96
s 3
f 9/93/97 8/91/91 55/92/92 58/94/98
s off
f 29/77/99 30/79/100 59/80/101 57/78/102
s 3
f 1/95/103 9/93/97 58/94/98 60/96/104
s off
f 30/79/105 1/81/106 60/82/107 59/80/108
g default
v -400.000031 -0.001730 900.000061
v 0.000214 -0.001730 900.000061
v -0.000153 -0.001722 400.000000
v -18.042358 -0.001736 550.498840
v -53.276123 -0.001736 700.000061
v -100.000061 -0.001736 800.000000
v -200.000031 -0.001736 859.512146
v -300.000031 -0.001736 888.955627
v -199.999786 -0.001730 900.000061
v -99.999786 -0.001730 900.000061
v -299.999786 -0.001730 900.000061
v -53.961884 -0.001730 900.000061
v -18.307465 -0.001730 900.000061
v 0.000214 -0.001730 550.498840
v 0.000214 -0.001730 700.000061
v -18.307434 -0.001736 700.000061
v 0.000214 -0.001730 800.000000
v -18.307434 -0.001730 800.000000
v -53.961884 -0.001730 800.000000
v 0.000214 -0.001730 859.512146
v -18.307434 -0.001730 859.512146
v -53.961884 -0.001730 859.512146
v -99.999786 -0.001730 859.512146
v 0.000214 -0.001730 888.955627
v -18.307434 -0.001730 888.955627
v -53.961884 -0.001730 888.955627
v -99.999786 -0.001730 888.955627
v -200.100464 -0.001730 888.955627
v -18.307434 25.655174 700.000061
v -53.276123 25.655174 700.000061
v -18.042358 25.655172 550.498840
v -300.000031 25.655174 888.955627
v -400.000031 25.655178 900.000061
v -299.999786 25.655178 900.000061
v -99.999786 25.655178 859.512146
v -200.000031 25.655174 859.512146
v -100.000061 25.655174 800.000000
v -200.100464 25.655178 888.955627
v -53.961884 25.655178 800.000000
v 0.000214 25.655178 550.498840
v -0.000153 25.655182 400.000000
v 0.000214 25.655178 700.000061
v 0.000214 25.655178 800.000000
v -18.307434 25.655178 800.000000
v 0.000214 25.655178 859.512146
v -18.307434 25.655178 859.512146
v -53.961884 25.655178 859.512146
v 0.000214 25.655178 888.955627
v -18.307434 25.655178 888.955627
v -53.961884 25.655178 888.955627
v -99.999786 25.655178 888.955627
v -18.307465 25.655178 900.000061
v 0.000214 25.655178 900.000061
v -53.961884 25.655178 900.000061
v -99.999786 25.655178 900.000061
v -199.999786 25.655178 900.000061
v 100.000214 -0.001730 550.498840
v 100.000214 25.655178 550.498840
v 100.000214 -0.001722 400.000000
v 100.000214 25.655186 400.000000
v 100.000214 -0.001730 700.000061
v 100.000214 25.655178 700.000061
v 100.000214 -0.001730 800.000000
v 100.000214 25.655178 800.000000
v 100.000214 -0.001730 859.512146
v 100.000214 25.655178 859.512146
v 100.000214 -0.001730 888.955627
v 100.000214 25.655178 888.955627
v 100.000214 -0.001730 900.000061
v 100.000214 25.655178 900.000061
v 0.000122 -0.001730 0.000000
v 0.000122 25.655178 0.000000
v 100.000214 25.655178 0.000000
v 100.000214 -0.001730 0.000000
vt 0.283672 0.224033
vt 0.230188 0.224032
vt 0.230188 0.186418
vt 0.283672 0.186418
vt 0.079527 0.224033
vt 0.069735 0.224032
vt 0.895982 0.449292
vt 0.895982 0.449292
vt 0.896151 0.350995
vt 0.323221 0.153688
vt 0.873709 0.449292
vt 0.652869 0.575309
vt 0.323221 0.116073
vt 0.716562 0.575309
vt 0.716562 0.568350
vt 0.843949 0.549798
vt 0.873709 0.449292
vt 0.843949 0.512300
vt 0.780256 0.549798
vt 0.780192 0.568350
vt 0.873273 0.512300
vt 0.896151 0.350995
vt 0.652869 0.575309
vt 0.716562 0.568350
vt 0.716562 0.575309
vt 0.843949 0.549798
vt 0.780256 0.549798
vt 0.843949 0.512300
vt 0.780192 0.568350
vt 0.873273 0.512300
vt 0.907643 0.350995
vt 0.907643 0.255628
vt 0.907643 0.449292
vt 0.907643 0.512300
vt 0.895982 0.512300
vt 0.907643 0.549798
vt 0.895982 0.549798
vt 0.873273 0.549798
vt 0.907643 0.568350
vt 0.895982 0.568350
vt 0.873273 0.568350
vt 0.843949 0.568350
vt 0.895982 0.575309
vt 0.907643 0.575309
vt 0.873273 0.575309
vt 0.843949 0.575309
vt 0.780256 0.575309
vt 0.971336 0.256381
vt 0.971336 0.351888
vt 0.069735 0.186418
vt 0.907643 0.350995
vt 0.971337 0.448486
vt 0.907643 0.255628
vt 0.971337 0.512300
vt 0.907643 0.449292
vt 0.079527 0.186418
vt 0.098597 0.224032
vt 0.098596 0.186418
vt 0.123220 0.224033
vt 0.123219 0.186418
vt 0.907643 0.512300
vt 0.895982 0.512300
vt 0.907643 0.549798
vt 0.895982 0.549798
vt 0.873273 0.549798
vt 0.907643 0.568350
vt 0.895982 0.568350
vt 0.873273 0.568350
vt 0.843949 0.568350
vt 0.895982 0.575309
vt 0.907643 0.575309
vt 0.873273 0.575309
vt 0.843949 0.575309
vt 0.780256 0.575309
vt 0.971336 0.351888
vt 0.971336 0.256381
vt 0.971337 0.448486
vt 0.971337 0.512300
vt 0.971337 0.549798
vt 0.971337 0.549798
vt 0.176704 0.224032
vt 0.176703 0.186418
vt 0.016256 0.224030
vt 0.016255 0.186416
vt 0.232114 0.153688
vt 0.138206 0.153687
vt 0.138206 0.116073
vt 0.232114 0.116073
vt 0.024489 0.153687
vt 0.017843 0.153688
vt 0.017843 0.116073
vt 0.024489 0.116073
vt 0.078024 0.153688
vt 0.042209 0.153688
vt 0.042209 0.116073
vt 0.078024 0.116073
vt 0.323221 0.153688
vt 0.323221 0.116073
vt 0.971337 0.568350
vt 0.971337 0.575309
vt 0.971337 0.568350
vt 0.971337 0.575309
vt 0.907643 0.008232
vt 0.971336 0.008232
vt 0.971336 0.008232
vt 0.907643 0.008232
vt 0.199471 0.108157
vt 0.199471 0.070543
vt 0.365198 0.070545
vt 0.365198 0.108160
vt 0.350971 0.222680
vt 0.350971 0.185066
vt 0.559478 0.116073
vt 0.559478 0.153688
vt 0.297588 0.222680
vt 0.297588 0.185066
vt 0.140347 0.070544
vt 0.140347 0.108158
vt 0.079390 0.070544
vt 0.079390 0.108159
vt 0.043578 0.070542
vt 0.043578 0.108156
vt 0.025858 0.070542
vt 0.025858 0.108157
vt 0.019210 0.070544
vt 0.019210 0.108158
vt 0.560845 0.070543
vt 0.560845 0.108157
vn -0.000000 1.000000 -0.000000
vn -0.000000 1.000000 0.000000
vn -0.000000 1.000000 -0.000000
vn 0.000000 1.000000 -0.000000
vn -0.000000 1.000000 -0.000000
vn -0.000000 1.000000 -0.000000
vn -0.000000 1.000000 -0.000000
vn -0.000000 1.000000 -0.000000
vn -0.000000 1.000000 -0.000000
vn -0.000000 1.000000 -0.000000
vn -0.000000 1.000000 -0.000000
vn -0.000000 1.000000 0.000000
vn -0.000000 1.000000 0.000000
vn -0.000000 1.000000 -0.000000
vn -0.000000 1.000000 -0.000000
vn -0.000000 1.000000 -0.000000
vn 0.000000 1.000000 0.000000
vn 0.000000 1.000000 0.000000
vn -0.000000 1.000000 -0.000000
vn 0.000000 1.000000 0.000000
vn 0.000000 1.000000 0.000000
vn 0.000000 1.000000 0.000000
vn -0.000000 1.000000 -0.000000
vn 0.000000 1.000000 0.000000
vn 0.000000 1.000000 0.000000
vn 0.000000 1.000000 0.000000
vn 0.000000 1.000000 -0.000000
vn -0.000000 1.000000 -0.000000
vn 0.000000 -1.000000 0.000000
vn 0.000000 -1.000000 0.000000
vn 0.000000 -1.000000 -0.000000
vn 0.000000 -1.000000 0.000001
vn 0.000000 -1.000000 0.000000
vn 0.000000 -1.000000 0.000000
vn 0.000000 -1.000000 0.000000
vn 0.000000 -1.000000 0.000000
vn 0.000000 -1.000000 0.000000
vn 0.000000 -1.000000 0.000000
vn 0.000000 -1.000000 0.000000
vn 0.000000 -1.000000 -0.000000
vn 0.000000 -1.000000 -0.000000
vn 0.000000 -1.000000 0.000000
vn 0.000000 -1.000000 0.000000
vn 0.000000 -1.000000 0.000000
vn 0.000000 -1.000000 0.000000
vn 0.000000 -1.000000 0.000000
vn 0.000000 -1.000000 0.000000
vn 0.000000 -1.000000 0.000000
vn 0.000000 -1.000000 0.000000
vn 0.000000 -1.000000 0.000000
vn 0.000000 -1.000000 0.000000
vn 0.000000 -1.000000 0.000000
vn 0.000000 -1.000000 0.000000
vn 0.000000 -1.000000 0.000000
vn 0.000000 -1.000000 0.000000
vn 0.000000 -1.000000 0.000000
vn -0.984595 0.000000 -0.174851
vn -0.950056 0.000000 -0.312080
vn -0.950056 0.000000 -0.312080
vn -0.984595 0.000000 -0.174851
vn -0.198415 0.000000 -0.980118
vn -0.109777 0.000000 -0.993956
vn -0.109777 0.000000 -0.993956
vn -0.198415 0.000000 -0.980118
vn 0.000000 0.000000 1.000000
vn 0.000000 0.000000 1.000000
vn 0.000000 0.000000 1.000000
vn 0.000000 0.000000 1.000000
vn -0.735994 0.000000 -0.676988
vn -0.406393 0.000000 -0.913698
vn -0.406393 0.000000 -0.913698
vn -0.735994 0.000000 -0.676988
vn -0.999463 0.000000 -0.032757
vn -0.999463 0.000000 -0.032757
vn 1.000000 0.000000 0.000000
vn 1.000000 0.000000 0.000000
vn 1.000000 0.000000 0.000000
vn 1.000000 0.000000 0.000000
vn 1.000000 0.000000 0.000000
vn 1.000000 0.000000 0.000000
vn 1.000000 0.000000 0.000000
vn 1.000000 0.000000 0.000000
vn 1.000000 0.000000 0.000000
vn 1.000000 0.000000 0.000000
vn 1.000000 0.000000 0.000000
vn 1.000000 0.000000 0.000000
vn 1.000000 0.000000 0.000000
vn 1.000000 0.000000 0.000000
vn 1.000000 0.000000 0.000000
vn 1.000000 0.000000 0.000000
vn 1.000000 0.000000 0.000000
vn 1.000000 0.000000 0.000000
vn 1.000000 0.000000 0.000000
vn 1.000000 0.000000 0.000000
vn 1.000000 0.000000 0.000000
vn 1.000000 0.000000 0.000000
vn 1.000000 0.000000 0.000000
vn 1.000000 0.000000 0.000000
vn 0.000000 0.000000 1.000000
vn 0.000000 0.000000 1.000000
vn 0.000000 0.000000 1.000000
vn 0.000000 0.000000 1.000000
vn 0.000000 0.000000 1.000000
vn 0.000000 0.000000 1.000000
vn 0.000000 0.000000 1.000000
vn 0.000000 0.000000 1.000000
vn 0.000000 0.000000 1.000000
vn 0.000000 0.000000 1.000000
vn 0.000000 0.000000 1.000000
vn 0.000000 0.000000 1.000000
vn 0.000000 0.000000 1.000000
vn 0.000000 0.000000 1.000000
vn 0.000000 0.000000 1.000000
vn 0.000000 0.000000 1.000000
vn 0.000000 0.000000 1.000000
vn 0.000000 0.000000 1.000000
vn 0.000000 0.000000 1.000000
vn 0.000000 0.000000 1.000000
vn 0.000000 -1.000000 -0.000000
vn 0.000000 -1.000000 -0.000000
vn 0.000000 -1.000000 -0.000000
vn 0.000000 -1.000000 -0.000000
vn 0.000000 0.000000 -1.000000
vn 0.000000 0.000000 -1.000000
vn 0.000000 0.000000 -1.000000
vn 0.000000 0.000000 -1.000000
vn -0.000000 1.000000 0.000000
vn -0.000000 1.000000 0.000000
vn -0.000000 1.000000 0.000000
vn -0.000000 1.000000 0.000000
vn 0.000000 -1.000000 0.000000
vn 0.000000 -1.000000 0.000000
vn 0.000000 -1.000000 0.000000
vn 0.000000 -1.000000 0.000000
vn 0.000000 1.000000 0.000000
vn 0.000000 1.000000 0.000000
vn 0.000000 1.000000 0.000000
vn 0.000000 1.000000 0.000000
vn 0.000000 -1.000000 0.000000
vn 0.000000 -1.000000 0.000000
vn 0.000000 -1.000000 0.000000
vn 0.000000 -1.000000 0.000000
vn 0.000000 1.000000 0.000000
vn 0.000000 1.000000 0.000000
vn 0.000000 1.000000 0.000000
vn 0.000000 1.000000 0.000000
vn 0.000000 -1.000000 0.000000
vn 0.000000 -1.000000 0.000000
vn 0.000000 -1.000000 0.000000
vn 0.000000 -1.000000 0.000000
vn 0.000000 1.000000 0.000000
vn 0.000000 1.000000 0.000000
vn 0.000000 1.000000 0.000000
vn 0.000000 1.000000 0.000000
vn 0.000000 -1.000000 0.000000
vn 0.000000 -1.000000 0.000000
vn 0.000000 -1.000000 0.000000
vn 0.000000 -1.000000 0.000000
vn 0.000000 1.000000 0.000000
vn 0.000000 1.000000 0.000000
vn 0.000000 1.000000 0.000000
vn 0.000000 1.000000 0.000000
vn 0.000000 -1.000000 0.000000
vn 0.000000 -1.000000 0.000000
vn 0.000000 -1.000000 0.000000
vn 0.000000 -1.000000 0.000000
vn 0.000000 1.000000 0.000000
vn 0.000000 1.000000 0.000000
vn 0.000000 1.000000 0.000000
vn 0.000000 1.000000 0.000000
vn 0.000000 0.000000 1.000000
vn 0.000000 0.000000 1.000000
vn 0.000000 0.000000 1.000000
vn 0.000000 0.000000 1.000000
vn -1.000000 0.000000 -0.000001
vn -1.000000 0.000000 -0.000001
vn -0.000000 1.000000 -0.000000
vn -0.000000 1.000000 -0.000000
vn -0.000000 1.000000 -0.000000
vn -0.000000 1.000000 -0.000000
vn 1.000000 0.000000 0.000000
vn 1.000000 0.000000 0.000000
vn 1.000000 0.000000 0.000000
vn 1.000000 0.000000 0.000000
vn 0.000000 -1.000000 0.000000
vn 0.000000 -1.000000 0.000000
vn 0.000000 -1.000000 0.000000
vn 0.000000 -1.000000 0.000000
s 1
g Dframe_R
usemtl blinn1SG
f 89/103/109 91/105/110 90/107/111
f 93/108/112 94/110/113 92/111/114
f 95/112/115 97/114/116 96/115/117
f 98/116/118 96/115/117 92/111/114
f 99/117/119 90/107/111 97/114/116
f 100/147/120 101/149/121 91/105/110
f 102/151/122 100/147/120 91/105/110 89/103/109
f 103/157/123 102/151/122 89/103/109 104/158/124
f 104/158/124 89/103/109 90/107/111 99/117/119
f 105/159/125 103/157/123 104/158/124 106/160/126
f 106/160/126 104/158/124 99/117/119 107/161/127
f 107/161/127 99/117/119 97/114/116 95/112/115
f 108/162/128 105/159/125 106/160/126 109/163/129
f 109/163/129 106/160/126 107/161/127 110/164/130
f 110/164/130 107/161/127 95/112/115 111/165/131
f 111/165/131 95/112/115 96/115/117 98/116/118
f 112/166/132 113/167/133 108/162/128 109/163/129
f 114/168/134 112/166/132 109/163/129 110/164/130
f 115/169/135 114/168/134 110/164/130 111/165/131
f 116/170/136 115/169/135 111/165/131 98/116/118
f 94/110/113 116/170/136 98/116/118 92/111/114
s 4
f 76/104/137 65/113/138 64/118/139
f 61/119/140 68/120/141 71/121/142
f 83/122/143 67/123/144 66/124/145
f 88/125/146 68/120/141 67/123/144
f 79/126/147 66/124/145 65/113/138
f 74/127/148 64/118/139 63/128/149
f 75/129/150 76/104/137 64/118/139 74/127/148
f 77/130/151 78/131/152 76/104/137 75/129/150
f 78/131/152 79/126/147 65/113/138 76/104/137
f 80/132/153 81/133/154 78/131/152 77/130/151
f 81/133/154 82/134/155 79/126/147 78/131/152
f 82/134/155 83/122/143 66/124/145 79/126/147
f 84/135/156 85/136/157 81/133/154 80/132/153
f 85/136/157 86/137/158 82/134/155 81/133/154
f 86/137/158 87/138/159 83/122/143 82/134/155
f 87/138/159 88/125/146 67/123/144 83/122/143
f 73/139/160 85/136/157 84/135/156 62/140/161
f 72/141/162 86/137/158 85/136/157 73/139/160
f 70/142/163 87/138/159 86/137/158 72/141/162
f 69/143/164 88/125/146 87/138/159 70/142/163
f 71/121/142 68/120/141 88/125/146 69/143/164
s 7
f 64/181/165 65/182/166 90/183/167 91/184/168
f 68/185/169 61/186/170 93/187/171 92/188/172
s off
f 61/97/173 71/98/174 94/99/175 93/100/176
s 7
f 66/189/177 67/190/178 96/191/179 97/192/180
f 67/190/178 68/185/169 92/188/172 96/191/179
f 65/182/166 66/189/177 97/192/180 90/183/167
f 63/193/181 64/181/165 91/184/168 101/194/182
s off
f 118/203/183 117/204/184 119/205/185 120/206/186
f 121/213/187 117/204/188 118/203/189 122/214/190
f 123/215/191 121/213/192 122/214/193 124/216/194
f 125/217/195 123/215/196 124/216/197 126/218/198
f 127/219/199 125/217/200 126/218/201 128/220/202
f 129/221/203 127/219/204 128/220/205 130/222/206
f 73/101/207 62/102/208 113/146/209 112/152/210
f 72/153/211 73/101/212 112/152/213 114/154/214
f 70/155/215 72/153/216 114/154/217 115/156/218
f 69/177/219 70/155/220 115/156/221 116/178/222
f 71/98/223 69/177/224 116/178/225 94/99/226
f 74/127/227 63/128/228 119/144/229 117/145/230
f 131/211/231 132/212/232 133/208/233 134/207/234
f 101/149/235 100/147/236 118/171/237 120/172/238
f 75/129/239 74/127/240 117/145/241 121/148/242
f 100/147/243 102/151/244 122/173/245 118/171/246
f 77/130/247 75/129/248 121/148/249 123/150/250
f 102/151/251 103/157/252 124/174/253 122/173/254
f 80/132/255 77/130/256 123/150/257 125/175/258
f 103/157/259 105/159/260 126/176/261 124/174/262
f 84/135/263 80/132/264 125/175/265 127/195/266
f 105/159/267 108/162/268 128/197/269 126/176/270
f 62/140/271 84/135/272 127/195/273 129/196/274
f 108/162/275 113/167/276 130/198/277 128/197/278
f 113/146/279 62/102/280 129/179/281 130/180/282
s 7
f 63/106/181 101/109/182 132/209/283 131/210/284
s off
f 101/149/285 120/172/286 133/200/287 132/202/288
f 120/206/289 119/205/290 134/223/291 133/224/292
f 119/144/293 63/128/294 131/199/295 134/201/296
