# This file uses centimeters as units for non-parametric coordinates.

mtllib Candle_Holder_Small_02.mtl
g default
v 0.152354 1.862632 -0.111762
v -0.013966 1.862632 -0.180653
v -0.180284 1.862632 -0.111762
v -0.249176 1.862632 0.054557
v -0.180284 1.862632 0.220879
v -0.013966 1.862632 0.289771
v 0.152354 1.862632 0.220879
v 0.221245 1.862632 0.054557
v 0.122437 2.189754 -0.081844
v -0.013966 2.189754 -0.138343
v -0.150367 2.189754 -0.081844
v -0.206866 2.189754 0.054557
v -0.150367 2.189754 0.190962
v -0.013966 2.189754 0.247461
v 0.122437 2.189754 0.190962
v 0.178936 2.189754 0.054557
v 0.237867 2.350179 -0.197271
v -0.013966 2.350179 -0.301587
v -0.265798 2.350179 -0.197271
v -0.370109 2.350179 0.054557
v -0.265798 2.350179 0.306389
v -0.013966 2.350179 0.410704
v 0.237867 2.350179 0.306389
v 0.342178 2.350179 0.054557
v 0.237867 2.515697 -0.197271
v -0.013966 2.515697 -0.301587
v -0.013966 2.515697 -0.235344
v 0.191027 2.515697 -0.150436
v -0.265798 2.515697 -0.197271
v -0.218959 2.515697 -0.150436
v -0.370109 2.515697 0.054557
v -0.303870 2.515697 0.054557
v -0.265798 2.515697 0.306389
v -0.218959 2.515697 0.259554
v -0.013966 2.515697 0.410704
v -0.013966 2.515697 0.344462
v 0.237867 2.515697 0.306389
v 0.191027 2.515697 0.259554
v 0.342178 2.515697 0.054557
v 0.275939 2.515697 0.054557
v -0.013966 0.371767 -0.068286
v 0.072900 0.371767 -0.032305
v -0.100831 0.371767 -0.032305
v -0.136812 0.371767 0.054557
v -0.100831 0.371767 0.141423
v -0.013966 0.371767 0.177404
v 0.072900 0.371767 0.141423
v 0.108881 0.371767 0.054557
v -0.013966 0.287633 -0.347129
v 0.270073 0.287633 -0.229478
v -0.298004 0.287633 -0.229478
v -0.415655 0.287633 0.054557
v -0.298004 0.287633 0.338595
v -0.013966 0.287633 0.456247
v 0.270073 0.287633 0.338595
v 0.387725 0.287633 0.054557
v -0.013966 0.210626 -0.347129
v 0.270073 0.210626 -0.229478
v -0.298004 0.210626 -0.229478
v -0.415655 0.210626 0.054557
v -0.298004 0.210626 0.338595
v -0.013966 0.210626 0.456247
v 0.270073 0.210626 0.338595
v 0.387725 0.210626 0.054557
v -0.013966 0.156676 -0.556708
v 0.418267 0.156676 -0.377677
v -0.446198 0.156676 -0.377677
v -0.625234 0.156676 0.054557
v -0.446198 0.156676 0.486794
v -0.013966 0.156676 0.665825
v 0.418267 0.156676 0.486794
v 0.597303 0.156676 0.054557
v 0.337875 0.000151 -0.297281
v -0.013966 0.000151 -0.443020
v -0.013966 0.000151 -0.556708
v 0.418267 0.000151 -0.377677
v -0.365806 0.000151 -0.297281
v -0.446198 0.000151 -0.377677
v -0.511543 0.000151 0.054557
v -0.625234 0.000151 0.054557
v -0.365806 0.000151 0.406398
v -0.446198 0.000151 0.486794
v -0.013966 0.000151 0.552134
v -0.013966 0.000151 0.665825
v 0.337875 0.000151 0.406398
v 0.418267 0.000151 0.486794
v 0.483612 0.000151 0.054557
v 0.597303 0.000151 0.054557
v -0.013966 0.000151 0.054557
v 0.191027 2.346628 -0.150436
v -0.013966 2.346628 -0.235344
v -0.013966 2.346628 0.054557
v -0.218959 2.346628 -0.150436
v -0.303870 2.346628 0.054557
v -0.218959 2.346628 0.259554
v -0.013966 2.346628 0.344462
v 0.191027 2.346628 0.259554
v 0.275939 2.346628 0.054557
vt 0.581492 0.212726
vt 0.573876 0.209571
vt 0.566260 0.212726
vt 0.563105 0.220342
vt 0.566260 0.227958
vt 0.573876 0.231113
vt 0.581492 0.227958
vt 0.584647 0.220342
vt 0.518564 0.220280
vt 0.524960 0.220280
vt 0.524960 0.235156
vt 0.518564 0.235156
vt 0.531279 0.220280
vt 0.531279 0.235156
vt 0.537486 0.220280
vt 0.537485 0.235156
vt 0.543774 0.220280
vt 0.543774 0.235156
vt 0.549589 0.220280
vt 0.500092 0.235156
vt 0.506022 0.220280
vt 0.506022 0.235156
vt 0.512221 0.220280
vt 0.512221 0.235156
vt 0.518564 0.165802
vt 0.524960 0.165802
vt 0.531279 0.165802
vt 0.537485 0.165802
vt 0.543774 0.165802
vt 0.549589 0.165802
vt 0.506022 0.165802
vt 0.512221 0.165802
vt 0.589367 0.220467
vt 0.584794 0.209425
vt 0.516796 0.237147
vt 0.524612 0.237147
vt 0.524612 0.246027
vt 0.516796 0.246027
vt 0.532686 0.237147
vt 0.532686 0.246027
vt 0.541343 0.237147
vt 0.541343 0.246027
vt 0.579594 0.214266
vt 0.573597 0.211869
vt 0.573597 0.206038
vt 0.583613 0.210033
vt 0.567954 0.214358
vt 0.563720 0.210350
vt 0.565522 0.220213
vt 0.559699 0.220213
vt 0.573876 0.220342
vt 0.573753 0.220467
vt 0.550508 0.237147
vt 0.550508 0.246027
vt 0.491422 0.237147
vt 0.491422 0.246027
vt 0.499297 0.237147
vt 0.499297 0.246027
vt 0.508444 0.237147
vt 0.508444 0.246027
vt 0.527047 0.161782
vt 0.516030 0.161782
vt 0.516030 0.149531
vt 0.527047 0.149531
vt 0.537205 0.161782
vt 0.537205 0.149531
vt 0.549092 0.161782
vt 0.549092 0.149532
vt 0.559292 0.161781
vt 0.559292 0.149531
vt 0.571130 0.161782
vt 0.571130 0.149531
vt 0.492599 0.161781
vt 0.492599 0.149531
vt 0.505002 0.161781
vt 0.505002 0.149532
vt 0.516030 0.145861
vt 0.527047 0.145861
vt 0.537205 0.145861
vt 0.549092 0.145861
vt 0.559292 0.145861
vt 0.571130 0.145861
vt 0.492599 0.145861
vt 0.505002 0.145861
vt 0.516030 0.135383
vt 0.527047 0.135383
vt 0.537205 0.135383
vt 0.549092 0.135383
vt 0.559292 0.135383
vt 0.571130 0.135383
vt 0.492599 0.135383
vt 0.505002 0.135383
vt 0.573876 0.205487
vt 0.584381 0.209837
vt 0.563372 0.209837
vt 0.559021 0.220342
vt 0.563372 0.230846
vt 0.573876 0.235197
vt 0.584381 0.230846
vt 0.588732 0.220342
vt 0.584794 0.231508
vt 0.573753 0.236081
vt 0.562711 0.231508
vt 0.558138 0.220467
vt 0.562711 0.209425
vt 0.573753 0.204852
vt 0.524612 0.252685
vt 0.516796 0.252685
vt 0.532686 0.252685
vt 0.541343 0.252685
vt 0.550508 0.252685
vt 0.491422 0.252685
vt 0.499297 0.252685
vt 0.508444 0.252685
vt 0.516030 0.129753
vt 0.527047 0.129753
vt 0.537205 0.129753
vt 0.549092 0.129753
vt 0.559292 0.129753
vt 0.571130 0.129753
vt 0.492599 0.129753
vt 0.505002 0.129753
vt 0.587983 0.234478
vt 0.573827 0.240342
vt 0.573827 0.236619
vt 0.585350 0.231846
vt 0.559670 0.234478
vt 0.562303 0.231846
vt 0.593847 0.220322
vt 0.590123 0.220322
vt 0.553806 0.220322
vt 0.557530 0.220322
vt 0.587983 0.206166
vt 0.585350 0.208799
vt 0.559670 0.206166
vt 0.562303 0.208799
vt 0.573827 0.200302
vt 0.573827 0.204026
vt 0.567992 0.225971
vt 0.563998 0.230236
vt 0.573597 0.228340
vt 0.573597 0.234177
vt 0.579636 0.225907
vt 0.583889 0.229903
vt 0.582078 0.220213
vt 0.587911 0.220214
vt 0.482340 0.135383
vt 0.482340 0.129753
vt 0.482340 0.145861
vt 0.482340 0.149531
vt 0.500093 0.165802
vt 0.482340 0.161782
vt 0.500092 0.220280
vt 0.557980 0.252685
vt 0.573827 0.200302
vt 0.573827 0.204026
vt 0.557980 0.246027
vt 0.549589 0.235156
vt 0.557981 0.237147
vn 0.000000 -1.000000 0.000000
vn 0.000000 -1.000000 0.000000
vn 0.000000 -1.000000 -0.000000
vn 0.000000 -1.000000 -0.000000
vn 0.000000 -1.000000 -0.000000
vn 0.000000 -1.000000 0.000000
vn 0.000000 -1.000000 -0.000000
vn 0.000000 -1.000000 -0.000000
vn 0.000000 -1.000000 -0.000000
vn 0.000000 -1.000000 -0.000000
vn 0.000000 -1.000000 -0.000000
vn 0.000000 -1.000000 0.000000
vn 0.000000 -1.000000 -0.000000
vn 0.000000 -1.000000 -0.000000
vn 0.000000 -1.000000 0.000000
vn 0.000000 -1.000000 -0.000000
vn 0.379978 0.118650 -0.917354
vn 0.379978 0.118650 -0.917354
vn 0.379978 0.118650 -0.917354
vn 0.379978 0.118650 -0.917354
vn -0.379980 0.118650 -0.917353
vn -0.379980 0.118650 -0.917353
vn -0.379980 0.118650 -0.917353
vn -0.379980 0.118650 -0.917353
vn -0.917354 0.118650 -0.379980
vn -0.917354 0.118650 -0.379980
vn -0.917353 0.118650 -0.379980
vn -0.917354 0.118650 -0.379980
vn -0.917357 0.118650 0.379972
vn -0.917357 0.118650 0.379972
vn -0.917357 0.118650 0.379972
vn -0.917357 0.118650 0.379972
vn -0.379980 0.118650 0.917353
vn -0.379980 0.118650 0.917353
vn -0.379980 0.118650 0.917353
vn -0.379980 0.118650 0.917353
vn 0.379978 0.118650 0.917354
vn 0.379978 0.118650 0.917354
vn 0.379978 0.118650 0.917354
vn 0.379978 0.118650 0.917354
vn 0.917358 0.118649 0.379970
vn 0.917358 0.118649 0.379971
vn 0.917358 0.118649 0.379971
vn 0.917358 0.118649 0.379971
vn 0.917354 0.118649 -0.379979
vn 0.917354 0.118649 -0.379979
vn 0.917354 0.118649 -0.379979
vn 0.917354 0.118649 -0.379979
vn 0.000000 1.000000 0.000000
vn 0.000000 1.000000 -0.000001
vn 0.000000 1.000000 -0.000001
vn 0.000000 1.000000 0.000000
vn 0.000000 1.000000 -0.000001
vn 0.000000 1.000000 -0.000001
vn 0.000000 1.000000 0.000000
vn 0.000000 1.000000 0.000000
vn 0.000000 1.000000 0.000000
vn 0.000000 1.000000 0.000000
vn 0.000000 1.000000 0.000000
vn 0.000000 1.000000 0.000000
vn 0.000000 1.000000 0.000000
vn 0.000000 1.000000 0.000000
vn 0.000000 1.000000 0.000000
vn 0.000000 1.000000 0.000000
vn 0.000000 -1.000000 -0.000000
vn 0.000000 1.000000 0.000000
vn 0.000000 1.000000 0.000000
vn 0.000000 1.000000 0.000000
vn 0.000000 1.000000 0.000000
vn 0.000000 1.000000 0.000000
vn 0.000000 1.000000 0.000000
vn 0.000000 1.000000 0.000000
vn 0.000000 1.000000 0.000000
vn 0.000000 1.000000 0.000000
vn 0.278823 -0.684948 -0.673129
vn 0.278823 -0.684948 -0.673129
vn 0.278823 -0.684948 -0.673129
vn 0.278823 -0.684948 -0.673130
vn -0.278824 -0.684948 -0.673129
vn -0.278824 -0.684948 -0.673129
vn -0.278824 -0.684948 -0.673129
vn -0.278824 -0.684948 -0.673129
vn -0.673129 -0.684950 -0.278820
vn -0.673129 -0.684950 -0.278820
vn -0.673129 -0.684950 -0.278820
vn -0.673129 -0.684950 -0.278820
vn -0.673131 -0.684950 0.278816
vn -0.673131 -0.684950 0.278816
vn -0.673131 -0.684950 0.278816
vn -0.673131 -0.684950 0.278816
vn -0.278824 -0.684948 0.673129
vn -0.278824 -0.684948 0.673129
vn -0.278824 -0.684949 0.673129
vn -0.278824 -0.684948 0.673129
vn 0.278823 -0.684948 0.673129
vn 0.278823 -0.684948 0.673129
vn 0.278823 -0.684948 0.673129
vn 0.278823 -0.684948 0.673129
vn 0.673131 -0.684950 0.278816
vn 0.673131 -0.684950 0.278816
vn 0.673131 -0.684950 0.278816
vn 0.673131 -0.684950 0.278816
vn 0.673129 -0.684950 -0.278821
vn 0.673129 -0.684950 -0.278821
vn 0.673129 -0.684950 -0.278821
vn 0.673129 -0.684950 -0.278821
vn 0.382692 0.000000 -0.923876
vn 0.382692 0.000000 -0.923876
vn 0.382692 0.000000 -0.923876
vn 0.382692 0.000000 -0.923876
vn -0.382693 0.000000 -0.923876
vn -0.382693 0.000000 -0.923876
vn -0.382693 0.000000 -0.923876
vn -0.382693 0.000000 -0.923876
vn -0.923879 0.000000 -0.382686
vn -0.923879 0.000000 -0.382686
vn -0.923879 0.000000 -0.382686
vn -0.923879 0.000000 -0.382686
vn -0.923881 0.000000 0.382681
vn -0.923881 0.000000 0.382681
vn -0.923881 0.000000 0.382681
vn -0.923881 0.000000 0.382681
vn -0.382693 0.000000 0.923876
vn -0.382693 0.000000 0.923876
vn -0.382693 0.000000 0.923876
vn -0.382693 0.000000 0.923876
vn 0.382692 0.000000 0.923876
vn 0.382692 0.000000 0.923876
vn 0.382692 0.000000 0.923876
vn 0.382692 0.000000 0.923876
vn 0.923881 0.000000 0.382681
vn 0.923881 0.000000 0.382681
vn 0.923881 0.000000 0.382681
vn 0.923881 0.000000 0.382681
vn 0.923879 0.000000 -0.382686
vn 0.923879 0.000000 -0.382686
vn 0.923879 0.000000 -0.382686
vn 0.923879 0.000000 -0.382686
vn 0.381758 -0.069465 -0.921648
vn 0.381758 -0.069465 -0.921648
vn 0.381758 -0.069465 -0.921648
vn 0.381758 -0.069465 -0.921648
vn -0.381760 -0.069465 -0.921647
vn -0.381760 -0.069465 -0.921647
vn -0.381760 -0.069465 -0.921647
vn -0.381760 -0.069465 -0.921647
vn -0.921646 -0.069464 -0.381763
vn -0.921646 -0.069464 -0.381763
vn -0.921646 -0.069464 -0.381763
vn -0.921646 -0.069464 -0.381763
vn -0.921650 -0.069464 0.381753
vn -0.921650 -0.069464 0.381753
vn -0.921650 -0.069464 0.381753
vn -0.921650 -0.069464 0.381753
vn -0.381760 -0.069465 0.921647
vn -0.381760 -0.069465 0.921647
vn -0.381760 -0.069465 0.921647
vn -0.381760 -0.069465 0.921647
vn 0.381758 -0.069465 0.921648
vn 0.381758 -0.069465 0.921648
vn 0.381758 -0.069465 0.921648
vn 0.381758 -0.069465 0.921648
vn 0.921651 -0.069463 0.381751
vn 0.921651 -0.069463 0.381751
vn 0.921651 -0.069463 0.381751
vn 0.921651 -0.069463 0.381751
vn 0.921647 -0.069463 -0.381760
vn 0.921647 -0.069463 -0.381760
vn 0.921647 -0.069463 -0.381760
vn 0.921647 -0.069463 -0.381760
vn 0.118802 0.950590 -0.286817
vn 0.118802 0.950590 -0.286817
vn 0.118802 0.950590 -0.286817
vn 0.118802 0.950590 -0.286817
vn -0.118803 0.950591 -0.286816
vn -0.118803 0.950591 -0.286816
vn -0.118803 0.950591 -0.286816
vn -0.118803 0.950591 -0.286816
vn -0.286815 0.950591 -0.118804
vn -0.286815 0.950591 -0.118804
vn -0.286815 0.950591 -0.118804
vn -0.286815 0.950591 -0.118804
vn -0.286816 0.950591 0.118802
vn -0.286816 0.950591 0.118802
vn -0.286816 0.950591 0.118802
vn -0.286816 0.950591 0.118802
vn -0.118803 0.950591 0.286816
vn -0.118803 0.950591 0.286816
vn -0.118803 0.950591 0.286816
vn -0.118803 0.950591 0.286816
vn 0.118802 0.950590 0.286817
vn 0.118802 0.950590 0.286817
vn 0.118802 0.950590 0.286817
vn 0.118802 0.950590 0.286817
vn 0.286816 0.950591 0.118802
vn 0.286816 0.950591 0.118802
vn 0.286816 0.950591 0.118802
vn 0.286816 0.950591 0.118802
vn 0.286815 0.950591 -0.118804
vn 0.286815 0.950591 -0.118804
vn 0.286815 0.950591 -0.118804
vn 0.286815 0.950591 -0.118804
vn 0.382679 0.000000 -0.923882
vn 0.382679 0.000000 -0.923882
vn 0.382679 0.000000 -0.923882
vn 0.382679 0.000000 -0.923882
vn -0.382680 0.000000 -0.923881
vn -0.382680 0.000000 -0.923881
vn -0.382680 0.000000 -0.923881
vn -0.382680 0.000000 -0.923881
vn -0.923879 0.000000 -0.382685
vn -0.923879 0.000000 -0.382685
vn -0.923879 0.000000 -0.382685
vn -0.923879 0.000000 -0.382685
vn -0.923881 0.000000 0.382681
vn -0.923881 0.000000 0.382681
vn -0.923881 0.000000 0.382681
vn -0.923881 0.000000 0.382681
vn -0.382680 0.000000 0.923881
vn -0.382680 0.000000 0.923881
vn -0.382680 0.000000 0.923881
vn -0.382680 0.000000 0.923881
vn 0.382679 0.000000 0.923882
vn 0.382679 0.000000 0.923882
vn 0.382679 0.000000 0.923882
vn 0.382679 0.000000 0.923882
vn 0.923880 0.000000 0.382681
vn 0.923880 0.000000 0.382681
vn 0.923880 0.000000 0.382681
vn 0.923880 0.000000 0.382681
vn 0.923879 0.000000 -0.382686
vn 0.923879 0.000000 -0.382686
vn 0.923879 0.000000 -0.382686
vn 0.923879 0.000000 -0.382686
vn 0.102713 0.963306 -0.247977
vn 0.102713 0.963306 -0.247977
vn 0.102713 0.963306 -0.247977
vn 0.102713 0.963306 -0.247977
vn -0.102713 0.963306 -0.247977
vn -0.102713 0.963306 -0.247977
vn -0.102713 0.963306 -0.247977
vn -0.102713 0.963306 -0.247977
vn -0.247977 0.963305 -0.102715
vn -0.247977 0.963305 -0.102715
vn -0.247977 0.963305 -0.102715
vn -0.247977 0.963305 -0.102715
vn -0.247977 0.963305 0.102714
vn -0.247977 0.963305 0.102714
vn -0.247977 0.963305 0.102714
vn -0.247977 0.963305 0.102714
vn -0.102713 0.963306 0.247976
vn -0.102713 0.963306 0.247976
vn -0.102713 0.963306 0.247976
vn -0.102713 0.963306 0.247976
vn 0.102713 0.963306 0.247977
vn 0.102713 0.963306 0.247977
vn 0.102713 0.963306 0.247977
vn 0.102713 0.963306 0.247977
vn 0.247978 0.963305 0.102715
vn 0.247978 0.963305 0.102715
vn 0.247978 0.963305 0.102715
vn 0.247978 0.963305 0.102715
vn 0.247978 0.963305 -0.102716
vn 0.247978 0.963305 -0.102716
vn 0.247978 0.963305 -0.102716
vn 0.247978 0.963305 -0.102716
vn 0.382672 0.000000 -0.923884
vn 0.382672 0.000000 -0.923884
vn 0.382672 0.000000 -0.923884
vn 0.382672 0.000000 -0.923884
vn -0.382674 0.000000 -0.923884
vn -0.382674 0.000000 -0.923884
vn -0.382674 0.000000 -0.923884
vn -0.382674 0.000000 -0.923884
vn -0.923880 0.000000 -0.382682
vn -0.923880 0.000000 -0.382682
vn -0.923880 0.000000 -0.382682
vn -0.923880 0.000000 -0.382682
vn -0.923881 0.000000 0.382679
vn -0.923881 0.000000 0.382679
vn -0.923881 0.000000 0.382679
vn -0.923881 0.000000 0.382679
vn -0.382674 0.000000 0.923884
vn -0.382674 0.000000 0.923884
vn -0.382674 0.000000 0.923884
vn -0.382674 0.000000 0.923884
vn 0.382672 0.000000 0.923884
vn 0.382672 0.000000 0.923884
vn 0.382672 0.000000 0.923884
vn 0.382672 0.000000 0.923884
vn 0.923882 0.000000 0.382678
vn 0.923882 0.000000 0.382678
vn 0.923882 0.000000 0.382678
vn 0.923882 0.000000 0.382678
vn 0.923880 0.000000 -0.382681
vn 0.923880 0.000000 -0.382681
vn 0.923880 0.000000 -0.382681
vn 0.923880 0.000000 -0.382681
vn -0.382673 0.000000 0.923884
vn -0.382673 0.000000 0.923884
vn -0.382673 0.000000 0.923884
vn -0.382673 0.000000 0.923884
vn 0.382673 0.000000 0.923884
vn 0.382673 0.000000 0.923884
vn 0.382673 0.000000 0.923884
vn 0.382673 0.000000 0.923884
vn 0.923879 0.000000 0.382685
vn 0.923879 0.000000 0.382685
vn 0.923879 0.000000 0.382685
vn 0.923879 0.000000 0.382685
vn 0.923881 0.000000 -0.382679
vn 0.923881 0.000000 -0.382679
vn 0.923881 0.000000 -0.382679
vn 0.923881 0.000000 -0.382679
vn 0.382673 0.000000 -0.923884
vn 0.382673 0.000000 -0.923884
vn 0.382673 0.000000 -0.923884
vn 0.382673 0.000000 -0.923884
vn -0.382673 0.000000 -0.923884
vn -0.382673 0.000000 -0.923884
vn -0.382673 0.000000 -0.923884
vn -0.382673 0.000000 -0.923884
vn -0.923880 0.000000 -0.382681
vn -0.923880 0.000000 -0.382681
vn -0.923880 0.000000 -0.382681
vn -0.923880 0.000000 -0.382681
vn -0.923878 0.000000 0.382687
vn -0.923878 0.000000 0.382687
vn -0.923878 0.000000 0.382687
vn -0.923878 0.000000 0.382687
s 1
g Candle_Holder_SMALL_02
usemtl initialShadingGroup
f 73/1/1 74/2/2 75/93/3 76/94/4
f 74/2/2 77/3/5 78/95/6 75/93/3
f 77/3/5 79/4/7 80/96/8 78/95/6
f 79/4/7 81/5/9 82/97/10 80/96/8
f 81/5/9 83/6/11 84/98/12 82/97/10
f 83/6/11 85/7/13 86/99/14 84/98/12
f 85/7/13 87/8/15 88/100/16 86/99/14
f 87/8/15 73/1/1 76/94/4 88/100/16
s off
f 1/9/17 2/10/18 10/11/19 9/12/20
f 2/10/21 3/13/22 11/14/23 10/11/24
f 3/13/25 4/15/26 12/16/27 11/14/28
f 4/15/29 5/17/30 13/18/31 12/16/32
f 5/17/33 6/19/34 14/158/35 13/18/36
f 6/153/37 7/21/38 15/22/39 14/20/40
f 7/21/41 8/23/42 16/24/43 15/22/44
f 8/23/45 1/9/46 9/12/47 16/24/48
s 2
f 25/123/49 26/124/50 27/125/51 28/126/52
f 26/124/50 29/127/53 30/128/54 27/125/51
f 29/127/53 31/131/55 32/132/56 30/128/54
f 31/131/55 33/135/57 34/136/58 32/132/56
f 33/135/57 35/137/59 36/156/60 34/136/58
f 35/155/59 37/133/61 38/134/62 36/138/60
f 37/133/61 39/129/63 40/130/64 38/134/62
f 39/129/63 25/123/49 28/126/52 40/130/64
s 1
f 77/3/5 74/2/2 89/51/65 79/4/7
f 81/5/9 79/4/7 89/51/65 83/6/11
f 85/7/13 83/6/11 89/51/65 87/8/15
f 73/1/1 87/8/15 89/51/65 74/2/2
s 3
f 92/52/66 91/102/67 93/103/68 94/104/69
f 92/52/66 94/104/69 95/105/70 96/106/71
f 92/52/66 96/106/71 97/34/72 98/33/73
f 92/52/66 98/33/73 90/101/74 91/102/67
s off
f 9/35/75 10/36/76 18/37/77 17/38/78
f 10/36/79 11/39/80 19/40/81 18/37/82
f 11/39/83 12/41/84 20/42/85 19/40/86
f 12/41/87 13/53/88 21/54/89 20/42/90
f 13/53/91 14/159/92 22/157/93 21/54/94
f 14/55/95 15/57/96 23/58/97 22/56/98
f 15/57/99 16/59/100 24/60/101 23/58/102
f 16/59/103 9/35/104 17/38/105 24/60/106
f 17/38/107 18/37/108 26/107/109 25/108/110
f 18/37/111 19/40/112 29/109/113 26/107/114
f 19/40/115 20/42/116 31/110/117 29/109/118
f 20/42/119 21/54/120 33/111/121 31/110/122
f 21/54/123 22/157/124 35/154/125 33/111/126
f 22/56/127 23/58/128 37/113/129 35/112/130
f 23/58/131 24/60/132 39/114/133 37/113/134
f 24/60/135 17/38/136 25/108/137 39/114/138
f 2/10/139 1/9/140 42/25/141 41/26/142
f 3/13/143 2/10/144 41/26/145 43/27/146
f 4/15/147 3/13/148 43/27/149 44/28/150
f 5/17/151 4/15/152 44/28/153 45/29/154
f 6/19/155 5/17/156 45/29/157 46/30/158
f 7/21/159 6/153/160 46/151/161 47/31/162
f 8/23/163 7/21/164 47/31/165 48/32/166
f 1/9/167 8/23/168 48/32/169 42/25/170
f 41/61/171 42/62/172 50/63/173 49/64/174
f 43/65/175 41/61/176 49/64/177 51/66/178
f 44/67/179 43/65/180 51/66/181 52/68/182
f 45/69/183 44/67/184 52/68/185 53/70/186
f 46/71/187 45/69/188 53/70/189 54/72/190
f 47/73/191 46/152/192 54/150/193 55/74/194
f 48/75/195 47/73/196 55/74/197 56/76/198
f 42/62/199 48/75/200 56/76/201 50/63/202
f 49/64/203 50/63/204 58/77/205 57/78/206
f 51/66/207 49/64/208 57/78/209 59/79/210
f 52/68/211 51/66/212 59/79/213 60/80/214
f 53/70/215 52/68/216 60/80/217 61/81/218
f 54/72/219 53/70/220 61/81/221 62/82/222
f 55/74/223 54/150/224 62/149/225 63/83/226
f 56/76/227 55/74/228 63/83/229 64/84/230
f 50/63/231 56/76/232 64/84/233 58/77/234
f 57/78/235 58/77/236 66/85/237 65/86/238
f 59/79/239 57/78/240 65/86/241 67/87/242
f 60/80/243 59/79/244 67/87/245 68/88/246
f 61/81/247 60/80/248 68/88/249 69/89/250
f 62/82/251 61/81/252 69/89/253 70/90/254
f 63/83/255 62/149/256 70/147/257 71/91/258
f 64/84/259 63/83/260 71/91/261 72/92/262
f 58/77/263 64/84/264 72/92/265 66/85/266
f 65/86/267 66/85/268 76/115/269 75/116/270
f 67/87/271 65/86/272 75/116/273 78/117/274
f 68/88/275 67/87/276 78/117/277 80/118/278
f 69/89/279 68/88/280 80/118/281 82/119/282
f 70/90/283 69/89/284 82/119/285 84/120/286
f 71/91/287 70/147/288 84/148/289 86/121/290
f 72/92/291 71/91/292 86/121/293 88/122/294
f 66/85/295 72/92/296 88/122/297 76/115/298
f 28/43/299 27/44/300 91/45/301 90/46/302
f 27/44/303 30/47/304 93/48/305 91/45/306
f 30/47/307 32/49/308 94/50/309 93/48/310
f 32/49/311 34/139/312 95/140/313 94/50/314
f 34/139/315 36/141/316 96/142/317 95/140/318
f 36/141/319 38/143/320 97/144/321 96/142/322
f 38/143/323 40/145/324 98/146/325 97/144/326
f 40/145/327 28/43/328 90/46/329 98/146/330
