# This file uses centimeters as units for non-parametric coordinates.

mtllib Ink_Well.mtl
g default
v -0.292757 0.003429 0.305056
v 0.274186 0.003429 0.305056
v -0.292757 0.393702 0.305056
v 0.274186 0.393702 0.305056
v -0.292757 0.393702 -0.261877
v 0.274186 0.393702 -0.261877
v -0.292757 0.003429 -0.261877
v 0.274186 0.003429 -0.261877
v 0.225565 0.393702 0.334590
v 0.225565 0.393702 -0.291412
v 0.225565 0.003429 -0.291412
v 0.225565 0.003429 0.334590
v -0.244135 0.393702 0.334590
v -0.244135 0.393702 -0.291412
v -0.244135 0.003429 -0.291412
v -0.244135 0.003429 0.334590
v 0.303720 0.393702 -0.222293
v -0.322292 0.393702 -0.222293
v -0.322292 0.003429 -0.222293
v -0.244135 0.003429 -0.222293
v 0.225565 0.003429 -0.222293
v 0.303720 0.003429 -0.222293
v 0.303720 0.393702 0.265462
v -0.322292 0.393702 0.265462
v -0.322292 0.003429 0.265462
v -0.244135 0.003429 0.265462
v 0.225565 0.003429 0.265462
v 0.303720 0.003429 0.265462
v -0.134262 0.446622 0.146571
v -0.069260 0.446622 0.159590
v -0.147284 0.446622 0.088484
v 0.050689 0.446622 0.159590
v 0.115693 0.446622 0.146571
v 0.128713 0.446622 0.088484
v 0.128713 0.446622 -0.045306
v 0.115693 0.446622 -0.103393
v 0.050689 0.446622 -0.116415
v -0.069260 0.446622 -0.116415
v -0.147284 0.446622 -0.045306
v -0.134262 0.446622 -0.103393
v -0.134262 0.646042 0.146571
v -0.069260 0.646042 0.159590
v -0.069260 0.602752 0.088484
v -0.147284 0.646042 0.088484
v 0.050689 0.646042 0.159590
v 0.115693 0.646042 0.146571
v 0.128713 0.646042 0.088484
v 0.050689 0.602752 0.088484
v 0.128713 0.646042 -0.045306
v 0.050689 0.602752 -0.045306
v 0.115693 0.646042 -0.103393
v 0.050689 0.646042 -0.116415
v -0.069260 0.602752 -0.045306
v -0.069260 0.646042 -0.116415
v -0.147284 0.646042 -0.045306
v -0.134262 0.646042 -0.103393
vt 0.938867 0.671624
vt 0.938867 0.755823
vt 0.960746 0.784252
vt 0.960746 0.780263
vt 0.969388 0.772757
vt 0.969388 0.775796
vt 0.985946 0.754358
vt 0.985946 0.750479
vt 0.989423 0.750479
vt 0.989423 0.754358
vt 0.938867 0.753872
vt 0.959532 0.753872
vt 0.938867 0.669242
vt 0.959531 0.669242
vt 0.963850 0.784253
vt 0.971968 0.775796
vt 0.989423 0.729272
vt 0.938867 0.784665
vt 0.985947 0.729272
vt 0.960746 0.758874
vt 0.960746 0.755347
vt 0.985947 0.725452
vt 0.938867 0.782243
vt 0.989423 0.725452
vt 0.969388 0.764287
vt 0.959532 0.755822
vt 0.971556 0.724042
vt 0.971556 0.720658
vt 0.959532 0.671624
vt 0.969388 0.767166
vt 0.938867 0.698514
vt 0.960774 0.754358
vt 0.960774 0.750479
vt 0.964098 0.750479
vt 0.964098 0.754358
vt 0.959532 0.728881
vt 0.964149 0.755347
vt 0.938867 0.728881
vt 0.974657 0.720658
vt 0.974657 0.724042
vt 0.938867 0.696618
vt 0.972103 0.764287
vt 0.959532 0.696618
vt 0.964098 0.729272
vt 0.960774 0.729272
vt 0.964098 0.725452
vt 0.960774 0.725452
vt 0.938867 0.726941
vt 0.960785 0.679391
vt 0.960784 0.724017
vt 0.960785 0.676254
vt 0.960784 0.720944
vt 0.960784 0.712010
vt 0.960784 0.709303
vt 0.971202 0.709303
vt 0.960785 0.700002
vt 0.960784 0.696951
vt 0.971202 0.696951
vt 0.971202 0.676255
vt 0.971202 0.679392
vt 0.960784 0.688337
vt 0.971202 0.720944
vt 0.960785 0.685695
vt 0.971202 0.724017
vt 0.971202 0.712010
vt 0.960784 0.702829
vt 0.971202 0.702829
vt 0.971202 0.700001
vt 0.960784 0.691316
vt 0.971202 0.691316
vt 0.971202 0.685696
vt 0.971202 0.688337
vt 0.959532 0.782244
vt 0.959532 0.784665
vt 0.959532 0.758195
vt 0.938867 0.758194
vt 0.971202 0.715134
vt 0.960784 0.715135
vt 0.959532 0.726941
vt 0.959531 0.698514
vt 0.959532 0.700863
vt 0.938866 0.700863
vt 0.983566 0.720658
vt 0.938867 0.724585
vt 0.959532 0.724585
vt 0.983566 0.724042
vt 0.980511 0.724042
vt 0.980511 0.720658
vt 0.986454 0.755347
vt 0.989596 0.755347
vt 0.980944 0.764287
vt 0.978353 0.764287
vt 0.989596 0.759191
vt 0.980944 0.767334
vt 0.989596 0.780724
vt 0.980944 0.772941
vt 0.989596 0.784252
vt 0.980944 0.775796
vt 0.986152 0.784252
vt 0.978218 0.775796
vt 0.971556 0.715406
vt 0.971556 0.712050
vt 0.974657 0.712050
vt 0.974657 0.715406
vt 0.980511 0.715406
vt 0.980511 0.712049
vt 0.983566 0.712049
vt 0.983566 0.715406
vn -0.519156 0.000000 0.854679
vn -0.056888 0.000000 0.998381
vn -0.056888 0.000000 0.998381
vn -0.519156 0.000000 0.854679
vn 0.300856 0.894707 -0.330128
vn 0.095747 0.879100 -0.466922
vn 0.176855 0.970304 -0.165023
vn 0.441123 0.892767 -0.091526
vn -0.519169 0.000000 -0.854672
vn -0.056890 0.000000 -0.998380
vn -0.056890 0.000000 -0.998380
vn -0.519169 0.000000 -0.854672
vn 0.000000 -1.000000 -0.000000
vn 0.000000 -1.000000 -0.000000
vn 0.000000 -1.000000 -0.000000
vn 0.000000 -1.000000 -0.000000
vn 0.801561 0.000000 0.597913
vn 0.998435 0.000000 0.055918
vn 0.998435 0.000000 0.055918
vn 0.801561 0.000000 0.597913
vn -0.998435 0.000000 0.055918
vn -0.801561 0.000000 0.597913
vn -0.801561 0.000000 0.597913
vn -0.998435 0.000000 0.055918
vn -0.095747 0.879101 -0.466920
vn -0.300855 0.894709 -0.330124
vn -0.441124 0.892767 -0.091527
vn -0.176855 0.970304 -0.165023
vn 0.056890 0.000000 -0.998380
vn 0.056890 0.000000 -0.998380
vn 0.519175 0.000000 -0.854668
vn 0.519175 0.000000 -0.854668
vn 0.000000 -1.000000 -0.000000
vn 0.000000 -1.000000 -0.000000
vn 0.000000 -1.000000 -0.000000
vn 0.000000 -1.000000 -0.000000
vn 0.056888 0.000000 0.998381
vn 0.056888 0.000000 0.998381
vn 0.519163 0.000000 0.854675
vn 0.519163 0.000000 0.854675
vn -0.176855 0.970304 0.165021
vn -0.441125 0.892767 0.091526
vn -0.300861 0.894710 0.330118
vn -0.095747 0.879107 0.466909
vn 0.176855 0.970304 0.165021
vn 0.095747 0.879106 0.466911
vn 0.441124 0.892767 0.091525
vn 0.300862 0.894708 0.330121
vn -0.801487 0.000000 -0.598013
vn -0.998435 0.000000 -0.055919
vn -0.998435 0.000000 -0.055919
vn -0.801487 0.000000 -0.598013
vn 0.000000 -1.000000 0.000000
vn 0.000000 -1.000000 0.000000
vn 0.000000 -1.000000 0.000000
vn 0.000000 -1.000000 0.000000
vn 0.000000 -1.000000 0.000000
vn 0.000000 -1.000000 0.000000
vn 0.000000 -1.000000 0.000000
vn 0.000000 -1.000000 0.000000
vn 0.998435 0.000000 -0.055919
vn 0.998435 0.000000 -0.055919
vn 0.801487 0.000000 -0.598013
vn 0.801487 0.000000 -0.598013
vn -0.083966 0.970918 0.224206
vn -0.083966 0.970918 0.224206
vn -0.083966 0.970918 0.224206
vn -0.083966 0.970918 0.224206
vn -0.214531 0.972235 0.093464
vn -0.214531 0.972235 0.093464
vn -0.214531 0.972235 0.093464
vn -0.214531 0.972235 0.093464
vn 0.083966 0.970918 0.224206
vn 0.083966 0.970918 0.224206
vn 0.083966 0.970918 0.224206
vn 0.083966 0.970918 0.224206
vn 0.214535 0.972234 0.093461
vn 0.214535 0.972234 0.093461
vn 0.214535 0.972234 0.093461
vn 0.214535 0.972234 0.093461
vn 0.000000 0.957192 0.289452
vn 0.000000 0.957192 0.289452
vn 0.000000 0.957192 0.289452
vn 0.000000 0.957192 0.289452
vn 0.214527 0.972236 -0.093468
vn 0.214527 0.972236 -0.093468
vn 0.214527 0.972236 -0.093468
vn 0.214527 0.972236 -0.093468
vn 0.083972 0.970918 -0.224203
vn 0.083972 0.970918 -0.224203
vn 0.083972 0.970918 -0.224203
vn 0.083972 0.970918 -0.224203
vn 0.000000 0.957191 -0.289457
vn 0.000000 0.957191 -0.289457
vn 0.000000 0.957191 -0.289457
vn 0.000000 0.957191 -0.289457
vn -0.083972 0.970918 -0.224202
vn -0.083972 0.970918 -0.224202
vn -0.083972 0.970918 -0.224202
vn -0.083972 0.970918 -0.224202
vn -0.214523 0.972236 -0.093470
vn -0.214523 0.972236 -0.093470
vn -0.214523 0.972236 -0.093470
vn -0.214523 0.972236 -0.093470
vn 0.289441 0.957196 0.000000
vn 0.289441 0.957196 0.000000
vn 0.289441 0.957196 0.000000
vn 0.289441 0.957196 0.000000
vn -0.289440 0.957196 0.000000
vn -0.289440 0.957196 0.000000
vn -0.289440 0.957196 0.000000
vn -0.289440 0.957196 0.000000
vn -0.196379 0.000000 0.980528
vn -0.196379 0.000000 0.980528
vn -0.196379 0.000000 0.980528
vn -0.196379 0.000000 0.980528
vn -0.975782 0.000000 0.218748
vn -0.975782 0.000000 0.218748
vn -0.975782 0.000000 0.218748
vn -0.975782 0.000000 0.218748
vn 0.196375 0.000000 0.980529
vn 0.196375 0.000000 0.980529
vn 0.196375 0.000000 0.980529
vn 0.196375 0.000000 0.980529
vn 0.975788 0.000000 0.218718
vn 0.975788 0.000000 0.218718
vn 0.975788 0.000000 0.218718
vn 0.975788 0.000000 0.218718
vn 0.000000 0.000000 1.000000
vn 0.000000 0.000000 1.000000
vn 0.000000 0.000000 1.000000
vn 0.000000 0.000000 1.000000
vn 0.975788 0.000000 -0.218718
vn 0.975788 0.000000 -0.218718
vn 0.975788 0.000000 -0.218718
vn 0.975788 0.000000 -0.218718
vn 0.196416 0.000000 -0.980521
vn 0.196416 0.000000 -0.980521
vn 0.196416 0.000000 -0.980521
vn 0.196416 0.000000 -0.980521
vn 0.000000 0.000000 -1.000000
vn 0.000000 0.000000 -1.000000
vn 0.000000 0.000000 -1.000000
vn 0.000000 0.000000 -1.000000
vn -0.196419 0.000000 -0.980520
vn -0.196419 0.000000 -0.980520
vn -0.196419 0.000000 -0.980520
vn -0.196419 0.000000 -0.980520
vn -0.975782 0.000000 -0.218748
vn -0.975782 0.000000 -0.218748
vn -0.975782 0.000000 -0.218748
vn -0.975782 0.000000 -0.218748
vn 1.000000 0.000000 0.000000
vn 1.000000 0.000000 0.000000
vn 1.000000 0.000000 0.000000
vn 1.000000 0.000000 0.000000
vn -1.000000 0.000000 0.000000
vn -1.000000 0.000000 0.000000
vn -1.000000 0.000000 0.000000
vn -1.000000 0.000000 0.000000
s 1
g Ink_Well
usemtl initialShadingGroup
f 1/18/1 16/23/2 13/73/3 3/74/4
s 2
f 41/27/5 42/28/6 43/39/7 44/40/8
s 3
f 5/80/9 14/81/10 15/82/11 7/31/12
s 4
f 25/7/13 26/8/14 16/9/15 1/10/16
s 5
f 2/2/17 28/11/18 23/12/19 4/26/20
s 6
f 25/1/21 1/13/22 3/14/23 24/29/24
s 2
f 45/101/25 46/102/26 47/103/27 48/104/28
s 3
f 11/84/29 10/85/30 6/79/31 8/48/32
s 4
f 12/17/33 27/19/34 28/22/35 2/24/36
s 1
f 9/75/37 12/76/38 2/2/39 4/26/40
s 2
f 42/28/6 45/101/25 48/104/28 43/39/7
s 3
f 15/82/11 14/81/10 10/85/30 11/84/29
s 4
f 16/9/15 26/8/14 27/19/34 12/17/33
s 1
f 13/73/3 16/23/2 12/76/38 9/75/37
s 2
f 50/105/41 49/106/42 51/107/43 52/108/44
f 53/88/45 50/105/41 52/108/44 54/83/46
f 55/87/47 53/88/45 54/83/46 56/86/48
s 6
f 7/31/49 19/41/50 18/43/51 5/80/52
s 4
f 7/32/53 15/33/54 20/34/55 19/35/56
f 21/44/57 20/34/55 15/33/54 11/45/58
f 22/46/59 21/44/57 11/45/58 8/47/60
s 5
f 17/36/61 22/38/62 8/48/63 6/79/64
s 2
f 48/104/28 47/103/27 49/106/42 50/105/41
f 43/39/7 48/104/28 50/105/41 53/88/45
f 44/40/8 43/39/7 53/88/45 55/87/47
s 6
f 19/41/50 25/1/21 24/29/24 18/43/51
s 4
f 19/35/56 20/34/55 26/8/14 25/7/13
f 27/19/34 26/8/14 20/34/55 21/44/57
f 28/22/35 27/19/34 21/44/57 22/46/59
s 5
f 23/12/19 28/11/18 22/38/62 17/36/61
s off
f 3/3/65 13/4/66 30/5/67 29/6/68
f 24/15/69 3/3/70 29/6/71 31/16/72
f 9/20/73 4/21/74 33/25/75 32/30/76
f 4/21/77 23/37/78 34/42/79 33/25/80
f 13/4/81 9/20/82 32/30/83 30/5/84
f 17/89/85 6/90/86 36/91/87 35/92/88
f 6/90/89 10/93/90 37/94/91 36/91/92
f 10/93/93 14/95/94 38/96/95 37/94/96
f 14/95/97 5/97/98 40/98/99 38/96/100
f 5/97/101 18/99/102 39/100/103 40/98/104
f 23/37/105 17/89/106 35/92/107 34/42/108
f 18/99/109 24/15/110 31/16/111 39/100/112
f 29/50/113 30/52/114 42/62/115 41/64/116
f 31/49/117 29/51/118 41/59/119 44/60/120
f 32/78/121 33/53/122 46/65/123 45/77/124
f 33/53/125 34/54/126 47/55/127 46/65/128
f 30/52/129 32/78/130 45/77/131 42/62/132
f 35/66/133 36/56/134 51/68/135 49/67/136
f 36/56/137 37/57/138 52/58/139 51/68/140
f 37/57/141 38/69/142 54/70/143 52/58/144
f 38/69/145 40/61/146 56/72/147 54/70/148
f 40/61/149 39/63/150 55/71/151 56/72/152
f 34/54/153 35/66/154 49/67/155 47/55/156
f 39/63/157 31/49/158 44/60/159 55/71/160
